<?xml version="1.0" standalone="no"?>
<!DOCTYPE svg PUBLIC "-//W3C//DTD SVG 1.1//EN" "http://www.w3.org/Graphics/SVG/1.1/DTD/svg11.dtd" >
<svg xmlns="http://www.w3.org/2000/svg">
<metadata>
Created by FontForge 20120731 at Tue Feb 21 14:28:58 2017
 By admin
</metadata>
<defs>
<font id="iconfont" horiz-adv-x="1024" >
  <font-face 
    font-family="iconfont"
    font-weight="500"
    font-stretch="normal"
    units-per-em="1024"
    panose-1="2 0 6 3 0 0 0 0 0 0"
    ascent="896"
    descent="-128"
    x-height="792"
    bbox="-0.37037 -212.125 6144 900"
    underline-thickness="0"
    underline-position="0"
    unicode-range="U+0078-E839"
  />
<missing-glyph 
 />
    <glyph glyph-name=".notdef" 
 />
    <glyph glyph-name=".notdef" 
 />
    <glyph glyph-name=".null" horiz-adv-x="0" 
 />
    <glyph glyph-name="nonmarkingreturn" horiz-adv-x="341" 
 />
    <glyph glyph-name="x" unicode="x" horiz-adv-x="1001" 
d="M281 543q-27 -1 -53 -1h-83q-18 0 -36.5 -6t-32.5 -18.5t-23 -32t-9 -45.5v-76h912v41q0 16 -0.5 30t-0.5 18q0 13 -5 29t-17 29.5t-31.5 22.5t-49.5 9h-133v-97h-438v97zM955 310v-52q0 -23 0.5 -52t0.5 -58t-10.5 -47.5t-26 -30t-33 -16t-31.5 -4.5q-14 -1 -29.5 -0.5
t-29.5 0.5h-32l-45 128h-439l-44 -128h-29h-34q-20 0 -45 1q-25 0 -41 9.5t-25.5 23t-13.5 29.5t-4 30v167h911zM163 247q-12 0 -21 -8.5t-9 -21.5t9 -21.5t21 -8.5q13 0 22 8.5t9 21.5t-9 21.5t-22 8.5zM316 123q-8 -26 -14 -48q-5 -19 -10.5 -37t-7.5 -25t-3 -15t1 -14.5
t9.5 -10.5t21.5 -4h37h67h81h80h64h36q23 0 34 12t2 38q-5 13 -9.5 30.5t-9.5 34.5q-5 19 -11 39h-368zM336 498v228q0 11 2.5 23t10 21.5t20.5 15.5t34 6h188q31 0 51.5 -14.5t20.5 -52.5v-227h-327z" />
    <glyph glyph-name="xiajiantou" unicode="&#x3438;" horiz-adv-x="1000" 
d="M188 425h625l-313 -313z" />
    <glyph glyph-name="shoucang" unicode="&#xe619;" 
d="M932 395h-321l-98 309l-99 -309h-320l258 -191l-98 -308l259 190l258 -190l-98 308zM717 -28l-204 150l-205 -150l78 243l-204 151h252l79 244l78 -244h252l-204 -151z" />
    <glyph glyph-name="fangzi" unicode="&#xe605;" 
d="M331 240h94v-93h-94v93zM937 368l-393 333q-14 12 -31.5 12t-31.5 -12l-393 -333q-16 -12 -17.5 -32t11.5 -35.5t33 -17t35 11.5l6 5v-383q0 -13 9 -22t22 -9h651q13 0 21.5 9t8.5 22v383l7 -5q13 -12 31 -12q22 0 37 17q12 16 10.5 36t-16.5 32zM808 -53h-114v293h-166
v-293h-311v404l295 250l296 -250v-404z" />
    <glyph glyph-name="notification" unicode="&#xe66b;" 
d="M526 -28q-31 0 -69 37l-182 183h-83q-40 0 -68 28t-28 68v192q0 40 28 68t68 28h83l182 183q37 37 69 37q20 0 35 -15t15 -45v-704q0 -31 -15 -45.5t-35 -14.5zM192 512q-13 0 -22.5 -9.5t-9.5 -22.5v-192q0 -13 9.5 -22.5t22.5 -9.5h96q13 0 23 -9l192 -192l9 -9v676
q-5 -4 -9 -9l-192 -192q-10 -9 -23 -9h-96zM688 166q-11 0 -19 6q-11 7 -13 20.5t6 23.5l12 18q22 29 32 45t20 45t10 60q0 33 -9 60.5t-18.5 42.5t-29.5 42q-10 13 -17 23q-8 10 -6 23.5t13 21t24 5.5t21 -13q4 -7 16 -21q23 -31 34.5 -49.5t23.5 -55.5t12 -79
q0 -41 -13 -79t-25 -57.5t-36 -51.5l-12 -17q-10 -13 -26 -13zM796 57q-12 0 -21 8q-10 9 -10.5 22t7.5 23q58 66 91 130t33 144t-33 144t-91 130q-8 10 -7.5 23t10.5 22t23.5 8t22.5 -11q63 -73 101 -147.5t38 -168.5t-38 -168.5t-101 -147.5q-10 -11 -25 -11z" />
    <glyph glyph-name="jingtou" unicode="&#xe683;" 
d="M513.5 672q-104.5 0 -193 -51.5t-140 -140t-51.5 -193.5t51.5 -193.5t140 -140t193 -51.5t193 51.5t140 140t51.5 193.5t-51.5 193.5t-140 140t-193 51.5zM513.5 -4q-120.5 0 -206 85t-85.5 206t85.5 206t206 85t206 -85t85.5 -206t-85.5 -206t-206 -85zM513.5 535
q-102.5 0 -175.5 -72.5t-73 -175.5t73 -175.5t175.5 -72.5t175.5 72.5t73 175.5t-73 175.5t-175.5 72.5zM514 370q-54 0 -92.5 19t-38.5 46t38.5 46t92.5 19t92 -19t38 -46t-38 -46t-92 -19z" />
    <glyph glyph-name="fenlei" unicode="&#xe60d;" 
d="M196 586q0 -9 -6.5 -16t-16.5 -7h-86q-9 0 -16 7t-7 16v86q0 10 7 16.5t16 6.5h86q10 0 16.5 -6.5t6.5 -16.5v-86zM959 586q0 -9 -6.5 -16t-16.5 -7h-625q-9 0 -16 7t-7 16v86q0 10 7 16.5t16 6.5h625q10 0 16.5 -6.5t6.5 -16.5v-86zM196 279q0 -9 -6.5 -16t-16.5 -7h-86
q-9 0 -16 7t-7 16v86q0 10 7 16.5t16 6.5h86q10 0 16.5 -6.5t6.5 -16.5v-86zM959 279q0 -9 -6.5 -16t-16.5 -7h-625q-9 0 -16 7t-7 16v86q0 10 7 16.5t16 6.5h625q10 0 16.5 -6.5t6.5 -16.5v-86zM196 -28q0 -9 -6.5 -16t-16.5 -7h-86q-9 0 -16 7t-7 16v86q0 10 7 16.5
t16 6.5h86q10 0 16.5 -6.5t6.5 -16.5v-86zM959 -28q0 -9 -6.5 -16t-16.5 -7h-625q-9 0 -16 7t-7 16v86q0 10 7 16.5t16 6.5h625q10 0 16.5 -6.5t6.5 -16.5v-86z" />
    <glyph glyph-name="shouji" unicode="&#xe60e;" 
d="M694 803h-363q-39 0 -67.5 -28.5t-28.5 -67.5v-814q0 -39 28.5 -67.5t67.5 -28.5h363q39 0 67.5 28.5t28.5 67.5v814q0 39 -28.5 67.5t-67.5 28.5zM461 751h104q9 0 9 -9t-9 -9h-104q-9 0 -9 9t9 9zM512 -165q-14 0 -24 10t-10 24t10 24t24 10t24 -10t10 -24.5t-10 -24
t-24 -9.5zM718 -63h-413v762h413v-762z" />
    <glyph glyph-name="weibiaoti2" unicode="&#xe603;" 
d="M871 -100h-658v362l273 268q4 5 10.5 10.5t21 12t29.5 6.5q31 0 60 -29l264 -269v-361v0zM255 -58h574v302l-252 257q-16 16 -30 16q-8 0 -15 -3.5t-11 -7.5l-3 -3l-2 -2l-261 -257v-302v0zM981 294l-361 357q-3 3 -8 7t-22 11.5t-34.5 9t-43 -8t-50.5 -32.5l-359 -343
v-5.5t2 -12.5t7.5 -12.5t16 -6.5t27.5 5l326 323q2 3 6 6.5t16.5 11t25.5 10.5t30.5 -1t33.5 -18l342 -337q2 -1 6 -2t12.5 -1.5t15 2t10 12t1.5 25.5zM376 636h-142v-216l147 141zM567 238h46v-37h-46v37zM567 311v-37h46v37h-46zM472 238h46v-37h-46v37zM472 311v-37h46
v37h-46zM567 238h46v-37h-46v37zM567 311v-37h46v37h-46zM472 238h46v-37h-46v37zM472 311v-37h46v37h-46z" />
    <glyph glyph-name="arrow-right" unicode="&#xe688;" 
d="M307.5 681.5q-6.5 -6.5 -6.5 -16t6 -15.5l362 -362l-362 -362q-6 -6 -6 -15.5t6.5 -16t16 -6.5t15.5 6l378 378q1 2 3 4q1 2 2 5q1 2 1 5q1 5 -1 9q-1 3 -2 5q-2 2 -3 4l-378 378q-6 6 -15.5 6t-16 -6.5z" />
    <glyph glyph-name="shouyezhuyetubiao04" unicode="&#xe604;" 
d="M742 323l-416 417q-9 9 -22 9t-22 -9t-9 -22t9 -22l394 -395l-394 -394q-9 -9 -9 -22t9 -22t22 -9t22 9l416 416q9 9 9 22t-9 22z" />
    <glyph glyph-name="gouwuche" unicode="&#xe730;" 
d="M365 172h403q15 0 27.5 9t17.5 23l77 333q6 13 -7 38q-4 9 -15.5 14t-22.5 5h-551l-19 84h-121q-11 0 -18.5 -5.5t-7.5 -14.5t8 -17t18 -8h83l38 -167v0v-12l58 -237q-21 -11 -36 -33.5t-15 -49.5q0 -32 25 -58q-10 -10 -17.5 -27t-7.5 -31q0 -33 24.5 -58t58.5 -25
t58.5 22t24.5 55q0 6 -3 19t-3 19h275q-7 -12 -7 -38q0 -34 25 -58.5t58.5 -24.5t58.5 24.5t25 58.5q0 33 -21.5 55.5t-55.5 27.5h-6h-429v0q-15 0 -27 12t-12 27q13 38 39 38zM787 50q15 0 27 -12t12 -26q0 -32 -39 -32q-14 0 -26 12t-12 26t11.5 23t26.5 9zM365 -20
q-15 0 -27 12t-12 26.5t12 26.5t27 12v0v0q14 0 26 -12t12 -27q0 -18 -11.5 -28t-26.5 -10zM768 217h-384l-51 224h486zM845 550l-13 -64h-512l-13 57z" />
    <glyph glyph-name="weixin" unicode="&#xe63b;" 
d="M499 467q20 0 32 12t12 32t-12 32t-32 12q-21 0 -37 -12.5t-16 -31.5t16 -31.5t37 -12.5zM253 555q-21 0 -37 -12.5t-16 -31.5t16 -31.5t37 -12.5q20 0 32 12t12 32t-12 32t-32 12zM1024 186q0 104 -84 182t-203 87v6q-24 111 -130 185t-240 74q-99 0 -184 -42
t-134 -114.5t-49 -158.5q0 -142 138 -243l-32 -94q-3 -10 5 -17q4 -4 10 -4q4 0 8 2l117 59l15 -3q68 -14 106 -14q17 0 34 1q7 1 11 6q33 -81 114.5 -132t183.5 -51q37 0 103 17l91 -50q3 -2 7 -2q6 0 11 3q8 7 5 18l-23 77q120 95 120 208zM399 124q-16 -1 -32 -1
q-35 0 -100 13l-20 4q-5 1 -10 -1l-88 -45l23 69q3 12 -6 19q-134 93 -134 223q0 77 45 142t122 103t168 38q123 0 219.5 -66t118.5 -166q-129 -1 -219.5 -80t-90.5 -190q0 -31 9 -63q-3 1 -5 1zM875 -4q-8 -6 -5 -17l15 -50l-62 34q-4 2 -8 2q-2 0 -4 -1q-67 -17 -101 -17
q-117 0 -200 70t-83 169t83 169t200 70q115 0 198.5 -71t83.5 -168q0 -49 -30 -98t-87 -92zM613 300q-13 0 -24 -11t-11 -24t11 -24t24 -11q19 0 31.5 10.5t12.5 24.5t-12.5 24.5t-31.5 10.5zM806 300q-13 0 -24 -11t-11 -24t11 -24t24 -11q19 0 31.5 10.5t12.5 24.5
t-12.5 24.5t-31.5 10.5z" />
    <glyph glyph-name="gouwuche2" unicode="&#xe663;" 
d="M329.5 103q-45.5 0 -77.5 -32.5t-32 -77.5t32 -77.5t77.5 -32.5t77.5 32.5t32 77.5t-32 77.5t-77.5 32.5zM329.5 -64q-23.5 0 -40 17t-16.5 40.5t16.5 40t40 16.5t40 -16.5t16.5 -40t-16.5 -40.5t-40 -17zM665.5 103q-45.5 0 -78 -32.5t-32.5 -77.5t32.5 -77.5t78 -32.5
t77.5 32.5t32 77.5t-32 77.5t-77.5 32.5zM665.5 -64q-23.5 0 -40 17t-16.5 40.5t16.5 40t40 16.5t40 -16.5t16.5 -40t-16.5 -40.5t-40 -17zM285 267q7 -16 24 -16h387q11 0 19 7.5t8 18.5t-8 19t-19 8h-369l-103 242h545q11 0 19 7.5t8 18.5t-8 19t-19 8h-679q-11 0 -19 -8
t-8 -19t8 -18.5t19 -7.5h77zM938 718q-11 3 -20.5 -2t-12.5 -16l-144 -509h-598q-11 0 -18.5 -8t-7.5 -19t7.5 -18.5t18.5 -7.5h618q20 0 26 19l149 529q3 10 -2.5 19.5t-15.5 12.5v0z" />
    <glyph glyph-name="gerenhuli" unicode="&#xe769;" 
d="M600 549q8 18 8 38q0 31 -18 56t-46 35v5h32h10v2q21 7 21 30q0 13 -9 22.5t-22 9.5h-128q-11 0 -20 -7q-67 -15 -121 -61q-17 -9 -17 -28q0 -13 9.5 -22.5t22.5 -9.5q10 0 18 6v0q60 53 140 57v-4q-29 -10 -46.5 -35t-17.5 -56q0 -20 8 -38q-87 -19 -143.5 -89
t-56.5 -160v-128v-64v-128q0 -53 37.5 -90.5t90.5 -37.5h128h64h127q53 0 90.5 37.5t37.5 90.5v128v64v128q0 90 -56.5 160t-142.5 89zM511.5 619q13.5 0 23 -9.5t9.5 -22.5t-9.5 -22.5t-23 -9.5t-22.5 9.5t-9 22.5t9 22.5t22.5 9.5zM735 172v-64v-128q0 -27 -18.5 -45.5
t-45.5 -18.5h-127h-64h-128q-27 0 -45.5 18.5t-18.5 45.5v128v64v128q0 79 56 135t136 56h64q79 0 135 -56t56 -135v-128zM608 300h-192q-27 0 -45.5 -19t-18.5 -45v-192q0 -27 18.5 -45.5t45.5 -18.5h192q26 0 44.5 18.5t18.5 45.5v192q0 26 -18.5 45t-44.5 19zM576 44
h-128q-14 0 -23 9.5t-9 22.5t9 22.5t23 9.5h128q13 0 22.5 -9.5t9.5 -22.5t-9.5 -22.5t-22.5 -9.5zM576 172h-128q-14 0 -23 9t-9 22.5t9 23t23 9.5h128q13 0 22.5 -9.5t9.5 -23t-9.5 -22.5t-22.5 -9z" />
    <glyph glyph-name="jiantouyou" unicode="&#xe63f;" 
d="M894 301q0 104 -51.5 192t-139.5 139t-192 51t-192 -51.5t-139 -139.5t-51 -192t51.5 -192t139.5 -139t192 -51t192 51.5t139 139.5t51 192v0zM415 467l257 -165l-257 -166v331z" />
    <glyph glyph-name="gouwuche1" unicode="&#xe653;" 
d="M825 203l146 333q5 13 -2.5 24.5t-21.5 11.5h-619l-23 104q-1 9 -8 14.5t-17 5.5h-203q-11 0 -18.5 -7.5t-7.5 -18t7.5 -18t18.5 -7.5h183l116 -540q-31 -9 -51.5 -35.5t-20.5 -59.5q0 -42 29.5 -71t70.5 -29t70 29t29 71q0 25 -13 48h198q-13 -23 -13 -48q0 -42 29 -71
t70.5 -29t70.5 29t29 70.5t-29 70.5t-70 29h-4h-3h-341v1.5v1.5l-16 76h391q17 0 23 15zM403.5 -52q-25.5 0 -43 18t-17.5 43.5t17.5 43.5t43 18t43.5 -18t18 -43.5t-18 -43.5t-43.5 -18zM836 9.5q0 -25.5 -18 -43.5t-43.5 -18t-43.5 18t-18 43.5t18 43.5t43.5 18t43.5 -18
t18 -43.5zM405 239l-65 282h568l-123 -282h-380z" />
    <glyph glyph-name="diyiming" unicode="&#xe641;" 
d="M657 120q72 12 130.5 60t95.5 116.5t56.5 148t19.5 161.5h-163q16 112 16 143h-598q8 -89 14 -143h-164q0 -83 20 -163t57.5 -148.5t97 -116t133.5 -59.5q41 -53 83 -68v-47h-116l-87 -153h521l-86 153h-116v47q38 10 86 69zM716 214q33 77 72 335h60q0 -125 -43.5 -222
t-92.5 -120q1 0 2 3t2 4zM175 549h60q31 -253 78 -342q-49 23 -93.5 120t-44.5 222zM400 249v60h75v232l-77 -18v62l153 32v-308h75v-60h-226z" />
    <glyph glyph-name="dierming" unicode="&#xe642;" 
d="M657 120q72 12 130.5 60t95.5 116.5t56.5 148t19.5 161.5h-163q16 112 16 143h-598q8 -89 14 -143h-164q0 -83 20 -163t57.5 -148.5t97 -116t133.5 -59.5q41 -53 83 -68v-47h-116l-87 -153h521l-86 153h-116v47q38 10 86 69zM716 214q33 77 72 335h60q0 -125 -43.5 -222
t-92.5 -120q1 0 2 3t2 4zM175 549h60q31 -253 78 -342q-49 23 -93.5 120t-44.5 222zM384 249v59l104 100q33 31 46 52.5t13 44.5q0 51 -55 51q-47 0 -90 -37v67q46 31 105 31q54 0 85.5 -27.5t31.5 -75.5q0 -63 -77 -133l-76 -68v-1h149v-63h-236z" />
    <glyph glyph-name="disanming" unicode="&#xe643;" 
d="M657 120q72 12 130.5 60t95.5 116.5t56.5 148t19.5 161.5h-163q16 112 16 143h-598q8 -89 14 -143h-164q0 -83 20 -163t57.5 -148.5t97 -116t133.5 -59.5q41 -53 83 -68v-47h-116l-87 -153h521l-86 153h-116v47q38 10 86 69zM716 214q33 77 72 335h60q0 -125 -43.5 -222
t-92.5 -120q1 0 2 3t2 4zM175 549h60q31 -253 78 -342q-49 23 -93.5 120t-44.5 222zM484 242q-56 0 -90 19v66q36 -27 84 -27q31 0 49 13.5t18 38.5q0 26 -21.5 39.5t-59.5 13.5h-33v59h30q73 0 73 49q0 46 -56 46q-36 0 -71 -24v63q38 19 89 19t83 -23.5t32 -66.5
q0 -71 -72 -89v-1q38 -4 60.5 -27.5t22.5 -57.5q0 -52 -37.5 -81t-100.5 -29z" />
    <glyph glyph-name="shu" unicode="&#xe61f;" 
d="M472 664h44v-757h-44v757z" />
    <glyph glyph-name="huli2" unicode="&#xe667;" 
d="M375 61h-136q-14 0 -24 -10t-10 -24t10 -24t24 -10h136q15 0 25 10t10 24t-10 24t-25 10zM375 198h-136q-14 0 -24 -10t-10 -24.5t10 -24.5t24 -10h136q15 0 25 10t10 24.5t-10 24.5t-25 10zM956 452v53q0 42 -30 72t-72.5 30t-72.5 -30t-30 -72v-53q-31 -18 -49.5 -49.5
t-18.5 -68.5v-409q0 -57 40 -97t96 -40h68q57 0 97 40t40 97v409q0 37 -18.5 68.5t-49.5 49.5zM887 -41q0 -14 -10 -24t-24 -10t-24 10t-10 24v68q0 14 10 24t24 10t24 -10t10 -24v-68zM401 600q9 20 9 41q0 33 -19 59.5t-50 36.5v7h45v2q24 8 24 32q0 14 -10 24t-25 10
h-136q-11 0 -21 -8q-70 -16 -129 -64q-19 -10 -19 -30q0 -15 10 -25t25 -10q9 0 19 7v-1q64 58 149 62v-6q-30 -10 -49 -36.5t-19 -59.5q0 -21 8 -41q-92 -20 -152.5 -94.5t-60.5 -171.5v-409q0 -57 40 -97t97 -40h341q56 0 96 40t40 97v409q0 97 -60.5 171.5t-152.5 94.5z
M478 -7q0 -28 -20 -48t-48 -20h-205q-28 0 -48 20t-20 48v205q0 28 20 48t48 20h205q28 0 48 -20t20 -48v-205z" />
    <glyph glyph-name="mendian" unicode="&#xe839;" 
d="M922 -73h-820q-15 0 -26 11.5t-11 26.5t11 26t26 11v0v298h75v-298h260v298h75v-298h335v298h75v-298v0q15 0 26 -11t11 -26t-11 -26.5t-26 -11.5zM810 188l-149 -149l-37 37l149 149zM549 151l149 149l38 -37l-149 -149zM313 250q0 14 9.5 23.5t22.5 9.5t22.5 -9.5
t9.5 -23.5q0 -15 -14 -25v-111q14 -9 14 -28q0 -13 -9.5 -23t-22.5 -10t-22.5 9.5t-9.5 23.5q0 18 13 28v111q-13 10 -13 25zM884.5 337q-26.5 0 -49.5 23t-25 52h-37q-2 -29 -25 -52t-49.5 -23t-49.5 23t-25 52h-37q-2 -29 -25 -52t-50 -23t-50 23t-25 52h-37
q-2 -29 -25 -52t-49.5 -23t-49.5 23t-25 52h-37q-2 -29 -25 -52t-49.5 -23t-49.5 23t-25 52v37h894v-37q-2 -29 -25 -52t-49.5 -23zM177 673h670l112 -187h-894zM810 524h37l-37 111h-37zM661 524h37l-37 111h-37zM475 524h74v111h-74v-111zM363 524l37 111h-37l-37 -111h37
zM214 524l37 111h-37l-37 -111h37z" />
    <glyph glyph-name="weixin1" unicode="&#xe659;" 
d="M317 493q-16 0 -28 -9.5t-12 -24t12 -24t28 -9.5q15 0 24 9.5t9 24.5t-9 24t-24 9v0zM590 300q-10 0 -18.5 -8.5t-8.5 -18.5t8.5 -18t18.5 -8q15 0 24 8t9 18.5t-9 18.5t-24 8v0zM959 611q0 57 -40 97t-96 40h-623q-57 0 -97 -40t-40 -97v-623q0 -56 40 -96t97 -40h623
q56 0 96 40t40 96v623v0zM404 153q-26 0 -94 14l-93 -47l27 80q-107 74 -107 180q0 94 78 160t189 66q98 0 174.5 -53t93.5 -134q-14 2 -25 2q-95 0 -161 -62t-66 -149q0 -28 8 -56q-13 -1 -24 -1v0zM796 60l20 -67l-73 40q-53 -13 -80 -13q-94 0 -160 56.5t-66 136.5
t66 136.5t160 56.5q91 0 159 -57t68 -136q0 -83 -94 -153v0zM737 300q-10 0 -18.5 -8.5t-8.5 -18.5t8.5 -18t18.5 -8q14 0 23.5 8t9.5 18.5t-9.5 18.5t-23.5 8v0zM503 426q15 0 24.5 9.5t9.5 24.5t-9 24t-25 9q-15 0 -27.5 -9.5t-12.5 -24t12.5 -24t27.5 -9.5v0zM503 426z
" />
    <glyph glyph-name="gouwuche3" unicode="&#xe626;" 
d="M937 709l-0.5 -0.5t-1 -0.5h-0.5v0h-71q-4 0 -12.5 1t-12 1t-6.5 -2.5t-3 -9.5l-0.5 -0.5l-0.5 -0.5l-13 -106h-724h-1h-1.5h-1.5h-1q-10 0 -16.5 -6.5t-6.5 -16.5q0 -8 5 -14.5t14 -8.5l3 -1q5 1 6 1h25l82 -327q0 -1 0.5 -1.5l0.5 -0.5q9 -40 41 -66.5t73 -26.5
q10 0 12 1h410l-3 -25q-29 -4 -52 -23t-33 -46h-270q-11 31 -38 50.5t-61 19.5q-43 0 -74 -31t-31 -74.5t31 -74.5t74 -31q34 0 61 20t38 51l7 23h257l6 -23q11 -31 38 -51t61 -20q44 0 75 31t31 75q0 28 -14 51.5t-37 37.5l69 578h64h1h1v0q10 0 17 7t7 16.5t-7 16.5t-17 7
v0zM279 -64q-24 0 -41 17t-17 41.5t17 41.5t41.5 17t41.5 -17t17 -41.5t-17 -41.5t-42 -17v0zM806 -5q0 -25 -17.5 -42t-41.5 -17t-41 17t-17 41.5t17 41.5t41 17t41.5 -17t17.5 -41v0zM768 170h-313v0h-164q-18 0 -32.5 17t-16.5 36l-34 134l-42 188h642l-40 -375v0z
M768 170z" />
    <glyph glyph-name="weibo" unicode="&#xe654;" 
d="M411.5 204.5q-13.5 5.5 -29 0.5t-23.5 -18t-4.5 -26.5t16.5 -19.5q13 -7 29 -1.5t24 19t4.5 27t-17 19zM456 223q-13 4 -20 -8t5 -17q13 -5 20 7q3 6 1.5 11t-6.5 7zM428 342.5q-87 -8.5 -145 -54.5t-52 -103t71.5 -91.5t152.5 -26t144.5 55t52 103.5t-71 91t-152.5 25.5
zM529 164q-17 -40 -61.5 -58.5t-87.5 -5.5q-42 14 -58 50t3 73q18 36 59 54t82 7q43 -11 62 -46t1 -74zM512 812q-139 0 -257 -68.5t-186.5 -186.5t-68.5 -257t68.5 -257t186.5 -186.5t257 -68.5t257 68.5t186.5 186.5t68.5 257t-68.5 257t-186.5 186.5t-257 68.5zM456 17
q-75 0 -141 22t-109.5 65t-43.5 99q0 92 104 196q66 66 133.5 92t96.5 -3q25 -25 8 -81q-4 -12 6 -11t10 3q55 22 97 22.5t60 -23.5q17 -25 -1 -70q-3 -9 0 -12t12 -6q35 -11 60 -35t25 -60q0 -33 -23.5 -68t-63.5 -64t-101 -47.5t-129 -18.5zM719 384q8 24 -9.5 43
t-42.5 14v0q-9 -2 -17 3t-10 14.5t3 17.5t15 10q51 11 86 -27.5t19 -88.5q-3 -9 -11.5 -13.5t-18 -1.5t-13.5 11.5t-1 17.5v0v0zM853 341v0q-3 -11 -13 -16t-20.5 -1.5t-15.5 13.5t-2 20v0q11 32 4 67t-31.5 61.5t-58 37.5t-67.5 3q-11 -2 -20 4t-11.5 17t3.5 20t17 12v0
q48 10 95.5 -5t81 -52.5t44 -86.5t-5.5 -94z" />
    <glyph glyph-name="ditu" unicode="&#xe600;" horiz-adv-x="1399" 
d="M558 503q0 24 9 45.5t25.5 38.5t38 26t45 9t45.5 -9t38.5 -26t25.5 -38.5t9 -45t-9 -45t-25.5 -38.5t-38.5 -26t-45.5 -9t-45 9t-38 26t-25.5 38.5t-9 44.5v0zM189 268v-1v1zM676 808q-90 0 -165.5 -44t-119.5 -119.5t-44 -165.5q0 -51 34 -126t82 -146t97 -135
t82 -102.5t34 -38.5q13 14 35.5 40t79 99t100 138.5t79 142.5t35.5 128q0 90 -44 165.5t-120 119.5t-165 44v0v0zM676 342q-68 0 -116.5 48t-48.5 116.5t48.5 116.5t116.5 48t116.5 -48t48.5 -116.5t-48.5 -116.5t-116.5 -48v0v0zM751 -9l-21 -36q159 -3 266.5 -21.5
t107.5 -44.5q0 -27 -123.5 -46.5t-299.5 -19.5q-423 0 -423 66q0 25 104.5 44t260.5 22l-21 36q-169 -6 -282.5 -34.5t-113.5 -66.5q0 -102 470 -102q195 0 333 30t138 72q0 38 -113.5 66.5t-282.5 34.5v0zM751 -9z" />
    <glyph glyph-name="gouwuche4" unicode="&#xe60f;" 
d="M794 246l-575 17l-142 355l770 51zM241 295l525 -15l44 354l-687 -46zM747.5 -28q-33.5 0 -57 23.5t-23.5 57t23.5 57t57 23.5t57.5 -23.5t24 -57t-24 -57t-57.5 -23.5zM748 101q-20 0 -34.5 -14t-14.5 -34.5t14.5 -34.5t34.5 -14t34 14t14 34.5t-14 34.5t-34 14z
M278.5 -28q-33.5 0 -57.5 23.5t-24 57t24 57t57.5 23.5t57 -23.5t23.5 -57t-23.5 -57t-57 -23.5zM278 101q-20 0 -34 -14t-14 -34.5t14 -34.5t34 -14t34.5 14t14.5 34.5t-14.5 34.5t-34.5 14zM845 649l-32 5l17 107l107 35l10 -30l-88 -30zM748 158l-15 30l23 60l38 -2z
M201 137l-8 29l69 14h473v-32h-471z" />
    <glyph glyph-name="100" unicode="&#xe66e;" 
d="M261 591l55 89v0q27 41 76 41t75 -41h118q27 41 76 41t75 -41v0l56 -89q-27 9 -56 9q-44 0 -82.5 -21.5t-61.5 -58.5h-131q-24 37 -62 58.5t-82 21.5q-29 0 -56 -9zM971 246q0 -82 -58.5 -140.5t-141.5 -58.5q-52 0 -96 24.5t-72 66.5q-29 -38 -77 -38t-77 38
q-27 -42 -71.5 -66.5t-95.5 -24.5q-83 0 -141.5 58.5t-58.5 140.5q0 59 32 108h-1l107 172q40 40 97 40q37 0 69 -19t50 -52l5 -9h171l5 9q17 33 49.5 52t69.5 19q56 0 96 -40l107 -172v0q32 -49 32 -108zM406 246.5q0 51.5 -36.5 88t-88 36.5t-88 -36.5t-36.5 -88t36.5 -88
t88 -36.5t88 36.5t36.5 88zM572 196q0 19 -13.5 32.5t-32.5 13.5t-32 -13.5t-13 -32.5t13 -32t32 -13t32.5 13t13.5 32zM895 246.5q0 51.5 -36.5 88t-88 36.5t-88 -36.5t-36.5 -88t36.5 -88t88 -36.5t88 36.5t36.5 88z" />
    <glyph glyph-name="dierming1" unicode="&#xe60b;" 
d="M938 -46l-97 173q25 10 37 33v1q15 25 9 55l-14 61v1l40 45l2 2q20 22 20 53q0 30 -20 52l-42 47l14 62q6 30 -9 55q-14 27 -43 36l-59 19l-18 60q-9 30 -34 45q-26 15 -54 8l-60 -13l-1 -1l-44 41l-2 3q-21 20 -50.5 20t-51.5 -20l-44 -43l-2 -1l-61 14q-28 7 -54 -8
q-25 -15 -34 -45l-18 -60v0l-60 -19q-29 -9 -42 -36q-15 -24 -9 -55l14 -62l-40 -45l-2 -2q-20 -22 -20 -52.5t20 -52.5v0l41 -46l1 -1l-14 -61v-1q-6 -31 9 -55q12 -24 37 -34l-97 -173q-5 -8 -2.5 -17.5t10.5 -14.5q4 -3 12 -3l132 1l65 -118q4 -9 13.5 -11.5t17.5 2.5
q7 4 9 10l100 177l18 -17q22 -20 51 -20q30 0 51 20l18 17l99 -177q3 -6 10 -10q8 -5 17.5 -2.5t13.5 11.5l65 118l132 -1q7 0 11 3q9 5 11.5 14.5t-2.5 17.5zM323 -138l-51 94q-7 12 -21 12l-105 -1l82 145l20 -6l18 -61q9 -27 34 -44q26 -15 54 -8l49 11zM589 84l-4 -1
q-16 -5 -28 -17l-2 -2l-43 -41l-45 43v0q-13 13 -31 18q-17 5 -37 1l-59 -14l-18 60q-5 18 -19 32q-12 12 -31 19l-58 18l13 62q4 18 -1 37l-1 3q-4 16 -16 30l-3 2l-39 44h1l41 45q13 15 17 33v0q5 19 1 37l-13 62l58 18q18 6 31 19q13 14 19 32v1l18 59l59 -14q20 -4 37 1
q18 5 31 18l2 2l43 41h1l44 -43q13 -13 32 -18q16 -5 36 -1l1 1l58 13l18 -60h1h-1q12 -39 50 -51l58 -18l-13 -62q-4 -20 0.5 -37.5t17.5 -31.5l42 -46l-1 -1l-41 -45q-13 -16 -17 -33l-1 -2q-4 -18 0 -35v-2l13 -60l-58 -18q-19 -7 -31 -19q-13 -13 -19 -32v-2l-18 -58
l-60 14q-19 4 -35 -1zM773 -32q-14 0 -21 -12l-51 -94l-80 142l47 -11h1q27 -7 52 6l3 2q24 14 33 42l1 2l18 61v0l20 6l82 -145zM656 230q60 60 60 148q0 87 -60 147q-59 62 -144 62t-144 -62q-60 -60 -60 -147q0 -86 58 -147l2 -1q59 -62 144 -62t144 62zM511.5 216
q-65.5 0 -110.5 47l-2 1q-45 48 -45 113.5t47 114.5q45 47 111 47t111 -47q46 -48 46 -114q0 -68 -46 -115t-111.5 -47zM523 317q19 18 32 33q15 18 22 34q8 18 8 35q0 27 -17 43q-18 18 -50 18q-16 0 -29 -4q-11 -4 -21 -10q-3 -3 -7 -6l-5 -5l-5 -5l13 -15l4 5q5 5 10 9
q8 5 16 8q10 4 22 4q47 0 47 -44q0 -27 -29 -61q-13 -16 -34 -36q-19 -17 -46 -40v-16h130v19h-99q11 9 20 17q10 9 18 17z" />
    <glyph glyph-name="disanming1" unicode="&#xe60c;" 
d="M664 229q61 60 61 148q0 87 -61 148q-59 62 -144 62t-144 -62q-60 -61 -60 -148q0 -86 58 -147l2 -1q59 -62 144 -62t144 62zM520 215q-66 0 -111 47l-2 1q-45 48 -45 114t47 114q45 47 111 47t112 -47t46 -114q0 -68 -46 -115t-112 -47zM947 -47l-97 173q24 10 37 33v1
q15 25 9 55l-14 61v1l40 45l2 2q20 22 20 53q0 30 -20 52l-42 47l14 62q6 31 -9 56q-14 27 -43 36l-59 18l-19 61q-8 30 -34 45q-25 15 -54 8l-60 -14h-1l-44 41l-2 3q-21 20 -50.5 20t-51.5 -20l-44 -43l-2 -1l-61 14q-28 7 -54 -8q-25 -15 -34 -45l-18 -60l-1 -1l-59 -18
q-29 -10 -43 -36q-15 -25 -9 -56l15 -62l-41 -44l-2 -3q-20 -21 -20 -52t20 -53h1l40 -46l2 -1l-14 -61l-1 -1q-6 -31 9 -55q13 -24 37 -34l-97 -173q-5 -9 -2.5 -18.5t11.5 -14.5q4 -3 11 -3l133 1l64 -118q5 -8 14.5 -11t17.5 2q7 4 9 10l100 178l18 -17q22 -21 51 -21
q30 0 51 21l18 17l100 -178q3 -6 9 -10q9 -5 18 -2t14 11l65 118l132 -1q7 0 11 3q9 5 11.5 14.5t-2.5 18.5zM331 -140l-52 94q-6 12 -20 12l-105 -1l82 146l19 -6l19 -61q9 -28 34 -45q26 -14 54 -8l49 12zM597 83l-3 -1q-17 -5 -29 -17l-2 -3l-43 -41l-45 44v0
q-13 13 -31 18q-17 5 -37 1l-60 -15l-18 60q-5 18 -18 33q-13 12 -32 19l-58 18l14 62q4 18 -1 37l-1 3q-5 16 -17 30l-2 2l-39 44v1l41 44q13 16 18 33v1q5 18 1 37l-14 61l58 18q19 7 32 20t18 32l1 1l17 59l60 -14q20 -4 37 1q18 5 31 18l2 2l43 40h1l44 -42
q13 -13 32 -18q17 -5 36 -1l1 1l59 13l18 -60v0v0q12 -39 50 -52l58 -18l-13 -61q-4 -20 0.5 -37.5t17.5 -32.5l42 -46l-1 -1l-41 -45q-13 -15 -18 -33l-1 -2q-3 -18 1 -35v-2l13 -60l-58 -18q-19 -7 -31 -19q-13 -14 -19 -33v-1l-18 -59l-60 15q-20 4 -36 -1zM781 -34
q-13 0 -20 -12l-52 -94l-79 143l47 -11l1 -1q26 -6 51 7l3 1q24 15 34 42v3l19 60v1l20 6l81 -146zM577 363q-6 5 -13 8l-8 4q1 0 2 1q3 1 5 2q7 3 12 8q7 6 11 15q5 10 5 23q0 26 -17 41q-18 15 -47 15q-14 0 -26 -4q-10 -2 -19 -7q-7 -4 -12 -9l-6 -6l12 -15l6 6q4 4 9 7
q7 4 14 6q8 3 18 3q47 0 47 -40q0 -19 -12 -28q-14 -11 -45 -11l-23 1v-20h26q30 1 45 -13q12 -11 12 -29q0 -42 -51 -42q-18 0 -33 9q-6 3 -11 7l-6 6l-13 -13l2 -3q1 -2 3 -4q6 -5 12 -9q9 -6 20 -9q13 -3 28 -3q33 0 51.5 16t18.5 44q0 14 -5 26q-5 9 -12 17z" />
    <glyph glyph-name="diyiming1" unicode="&#xe610;" 
d="M656 229q60 60 60 148q0 87 -60 148q-59 62 -144 62t-145 -62q-60 -61 -60 -148q0 -86 59 -147l1 -1q60 -62 145 -62t144 62zM511.5 215q-65.5 0 -111.5 47l-1 1q-45 48 -45 114t46 114q46 47 112 47t112 -47q45 -47 45 -114q0 -68 -45 -115q-47 -47 -112.5 -47zM939 -47
l-97 173q24 10 37 33v1q15 25 8 55l-13 61v1l40 45l2 2q20 22 20 53q0 30 -20 52l-42 47l13 62q7 31 -8 56q-14 27 -43 36l-59 18l-19 61q-9 30 -34 45t-54 8l-60 -14h-1l-44 41l-2 3q-21 20 -50.5 20t-51.5 -20l-44 -43l-2 -1l-61 14q-29 7 -54 -8t-34 -45l-19 -60v-1
l-59 -18q-29 -10 -43 -36q-15 -25 -9 -56l15 -62l-41 -44l-2 -3q-20 -21 -20 -52t20 -53v0l41 -46l2 -1l-14 -61l-1 -1q-6 -31 9 -55q13 -24 37 -34l-97 -173q-5 -9 -2.5 -18.5t11.5 -14.5q4 -3 11 -3l132 1l65 -118q5 -8 14 -11t18 2q6 4 9 10l100 178l18 -17
q22 -21 51 -21q30 0 51 21l18 17l100 -178q3 -6 9 -10q9 -5 18 -2t13 11l65 118l132 -1q8 0 12 3q9 5 11.5 14.5t-2.5 18.5zM323 -140l-52 94q-7 12 -20 12l-105 -1l81 146l20 -6l19 -61q8 -28 34 -45q26 -14 54 -8l49 12zM589 83l-4 -1q-16 -5 -28 -17l-2 -3l-43 -41
l-45 44v0q-13 13 -32 18q-16 5 -36 1l-60 -15l-18 60q-5 18 -18 33q-13 12 -32 19l-58 18l13 62q5 18 0 37l-1 3q-5 16 -17 30l-2 2l-39 44v1l41 44q13 16 18 33v1q4 18 0 37l-13 61l58 18q19 7 32 20t18 32l1 1l17 59l60 -14q20 -4 36 1q19 5 32 18l2 2l43 40h1l44 -42
q13 -13 32 -18q17 -5 36 -1l1 1l59 13l18 -60v0v0q12 -39 50 -52l58 -18l-14 -61q-3 -20 1.5 -37.5t17.5 -32.5l42 -46l-1 -1l-41 -45q-13 -15 -18 -33l-1 -2q-3 -18 0 -35l1 -2l13 -60l-58 -18q-19 -7 -32 -19q-13 -14 -18 -33v-1l-18 -59l-60 15q-20 4 -36 -1zM773 -34
q-14 0 -20 -12l-52 -94l-80 143l47 -11l1 -1q27 -6 52 7l3 1q24 15 33 42l1 3l19 60v1l20 6l81 -146zM528 476h-18q-6 -11 -16 -20q-8 -7 -19 -13t-23 -9l4 -16q9 1 20 5q10 3 16 6q10 5 15 11v-158h-53v-19h122v19h-48v194z" />
    <glyph glyph-name="huanshachepian" unicode="&#xe6b4;" 
d="M348 535zM469 443zM605 361q9 0 15.5 6.5t7 16t-6.5 16t-16 6.5t-15.5 -6.5t-7 -16t6.5 -16t16 -6.5zM524 461.5q9 -2.5 17 2t10.5 13.5t-2 17t-13.5 10.5t-17 -2t-10.5 -13.5t2 -17t13.5 -10.5zM523 306.5q-9 -2.5 -13.5 -10.5t-2 -17t10.5 -13.5t17 -2.5t13.5 10.5
t2 17.5t-10.5 13.5t-17 2zM501.5 330q22.5 0 38.5 15.5t16 38t-15.5 38.5t-38 16t-38.5 -15.5t-16 -38t15.5 -38.5t38 -16zM512 879q-101 0 -192.5 -39t-158 -105.5t-105.5 -158t-39 -192.5t39 -192.5t105.5 -158t158 -105.5t192.5 -39t192.5 39t158 105.5t105.5 158
t39 192.5t-39 192.5t-105.5 158t-158 105.5t-192.5 39zM360 141q-50 29 -83.5 74.5t-47 97t-6.5 108t36 105.5q56 97 163.5 128.5t206.5 -18.5l-22 -30q-49 23 -103 24q-102 0 -174.5 -71.5t-73 -173t71 -174t173.5 -73.5q61 0 114 27.5t88 76.5l33 -16q-62 -92 -170.5 -117
t-205.5 32zM657.5 383q-0.5 -64 -46.5 -109.5t-110 -45t-109.5 46.5t-45 110t46.5 109.5t110 45t109.5 -46.5t45 -110zM799 248l-6 -13l-130 60l5 13q28 59 11.5 122.5t-69.5 101.5l-11 8l84 116l11 -8q94 -69 123.5 -182t-18.5 -218zM408.5 432q7.5 -6 16.5 -5t15 8t5 16.5
t-8 15.5t-16 5t-15 -8t-5.5 -16.5t8 -15.5zM436.5 302q7.5 6 8.5 15t-5 16.5t-15.5 8.5t-16.5 -5t-8 -15.5t5 -16.5t15 -8t16.5 5z" />
    <glyph glyph-name="weixin2" unicode="&#xe623;" horiz-adv-x="1101" 
d="M967 42l70 -170l-172 123q-51 -15 -102 -15q-92 0 -170 41t-123.5 111t-45.5 153t45.5 153t123.5 111t169.5 41t169.5 -41t123.5 -111t45.5 -153q0 -72 -35.5 -136t-98.5 -107zM762.5 546q-122.5 0 -209 -76.5t-86.5 -184.5t86.5 -184.5t209.5 -76.5q50 0 99 16l10 3
l68 -48l-27 65l16 10q61 36 95 93.5t34 121.5q0 108 -86.5 184.5t-209 76.5zM872.5 328q-17.5 0 -30 13t-12.5 31t12.5 31t30 13t30 -13t12.5 -31t-12.5 -31t-30 -13zM655 328q-18 0 -30.5 13t-12.5 31t12.5 31t30.5 13t30.5 -13t12.5 -31t-12.5 -31t-30.5 -13zM567 645
q0 -21 -14.5 -36t-35 -15t-35.5 15t-15 36t15 36t35.5 15t35 -15t14.5 -36zM213 645q0 21 15 36t35.5 15t35 -15t14.5 -36t-14.5 -36t-35 -15t-35.5 15t-15 36zM392 852q-95 0 -175.5 -41.5t-127 -112.5t-46.5 -155q0 -76 40.5 -144t111.5 -111l16 -10l-35 -85l88 63l10 -3
q32 -11 68 -15q3 -22 9 -46q-41 4 -79 15l-193 -137l78 190q-74 50 -115.5 124.5t-41.5 158.5q0 96 52.5 177t143 128.5t196.5 47.5q121 0 219 -60.5t143 -157.5q-23 -1 -46 -4q-43 80 -128 129t-188 49z" />
    <glyph glyph-name="jingxiang" unicode="&#xe662;" 
d="M512 896q-139 0 -257 -68.5t-186.5 -186.5t-68.5 -257t68.5 -257t186.5 -186.5t257 -68.5t257 68.5t186.5 186.5t68.5 257t-68.5 257t-186.5 186.5t-257 68.5zM512 192q-80 0 -136 56t-56 136t56 136t136 56t136 -56t56 -136t-56 -136t-136 -56zM576 384
q0 -27 -18.5 -45.5t-45.5 -18.5t-45.5 18.5t-18.5 45.5t18.5 45.5t45.5 18.5t45.5 -18.5t18.5 -45.5z" />
    <glyph glyph-name="jingxiang1" unicode="&#xe6ca;" 
d="M512 845q-94 0 -179 -36.5t-147 -98.5t-98.5 -147t-36.5 -179t36.5 -179t98.5 -147t147 -98.5t179 -36.5t179 36.5t147 98.5t98.5 147t36.5 179t-36.5 179t-98.5 147t-147 98.5t-179 36.5zM512 253q-54 0 -92.5 38.5t-38.5 92.5t38.5 92.5t92.5 38.5t92.5 -38.5
t38.5 -92.5t-38.5 -92.5t-92.5 -38.5z" />
    <glyph glyph-name="weibo1" unicode="&#xe606;" 
d="M445 221q-76 -3 -129 30t-53 83t53 86.5t129 39.5q77 4 130 -25t53 -79q0 -51 -54 -91.5t-129 -43.5zM660 440q-11 2 -14 6.5t-1 7.5l3 3q2 5 5.5 12t2.5 25t-13 30q-20 15 -46.5 14t-49.5 -9l-23 -9q-22 -7 -24 1.5t4 27.5q0 11 -1.5 19.5t-7.5 18.5t-15.5 15.5t-28 5
t-43.5 -8.5q-24 -9 -49 -25.5t-44 -34.5t-34.5 -34.5t-23.5 -27.5l-8 -11q-23 -30 -34.5 -60.5t-10.5 -45.5v-15q5 -42 27.5 -72.5t58.5 -47.5t71.5 -25.5t76.5 -11.5q82 -6 166 27.5t114 96.5q12 25 12 46.5t-7.5 35t-20 24t-23 15.5t-19.5 7zM459 334q-11 -9 -17 1
q-7 11 4 19q12 10 19 -1q6 -10 -6 -19zM399.5 282.5q-14.5 -1.5 -24.5 5.5t-10 19t9.5 22.5t23.5 11.5q16 2 26 -6t10 -20t-10 -21.5t-24.5 -11zM425 416q-90 -11 -90 -107q0 -3 0.5 -8.5t7.5 -18t19 -18.5q46 -23 86.5 -14t65.5 41q12 15 13 38t-7.5 44t-33.5 34t-61 9z
M709 481q15 0 17 14v2q3 31 -5 52t-22 28.5t-28.5 11t-25.5 1.5l-10 -1q-7 0 -12 -5t-5 -12t5 -11.5t12 -4.5q22 4 34.5 0t17.5 -13.5t6.5 -19.5t0.5 -18l-1 -7q0 -7 4.5 -12t11.5 -5zM697 675q-35 9 -83 0l-1 -0.5l-1 -0.5l-1 -1q-17 -5 -17 -23q0 -10 7 -17t17 -7
q13 1 22 5q7 3 26.5 0.5t48 -17.5t45.5 -43q18 -41 7 -80q-5 -12 -5 -23q0 -10 7 -16t17.5 -6t16 4t7.5 16v0q12 51 8 87t-25.5 62t-45 40t-50.5 20zM512 895q-101 0 -192.5 -39.5t-158 -106t-106 -158t-39.5 -192.5t39.5 -192.5t106 -158t158 -105.5t192.5 -39t192.5 39
t158 105.5t106 158t39.5 192.5t-39.5 192.5t-106 158t-158 106t-192.5 39.5zM511 868q95 0 182 -37t149.5 -100t99.5 -149.5t37 -181.5t-37 -182t-99.5 -149.5t-149.5 -99.5t-182 -37t-181.5 37t-149.5 99.5t-100 149.5t-37 182t37 181.5t100 149.5t149.5 100t181.5 37v0z
" />
    <glyph glyph-name="icon07" unicode="&#xe617;" 
d="M282 1q-90 0 -153.5 64t-63.5 153.5t63.5 153.5t153.5 64t153.5 -64t63.5 -153.5t-63.5 -153.5t-153.5 -64zM282 374q-64 0 -110 -45.5t-46 -110t46 -110t110 -45.5t110 45.5t46 110t-46 110t-110 45.5zM281.5 124q-39.5 0 -67.5 28t-28 67.5t28 67.5t67.5 28t67.5 -28
t28 -67.5t-28 -67.5t-67.5 -28zM281.5 254q-14.5 0 -24.5 -10t-10 -24.5t10 -24.5t24.5 -10t24.5 10t10 24.5t-10 24.5t-24.5 10zM740.5 1q-89.5 0 -153.5 64t-64 153.5t64 153.5t153.5 64t153.5 -64t64 -153.5t-64 -153.5t-153.5 -64zM740.5 374q-64.5 0 -110 -45.5
t-45.5 -110t45.5 -110t110 -45.5t110 45.5t45.5 110t-45.5 110t-110 45.5zM740 124q-40 0 -68 28t-28 67.5t28 67.5t68 28t68 -28t28 -67.5t-28 -67.5t-68 -28zM740 254q-14 0 -24.5 -10t-10.5 -24.5t10.5 -24.5t24.5 -10t24 10t10 24.5t-10 24.5t-24 10zM511 243
q-13 0 -22 9t-9 22v323q0 24 -14 42q-15 19 -38 26q-30 10 -57 -7q-13 -9 -22 -20l-197 -334q-7 -11 -19.5 -14t-23 3.5t-14 18.5t3.5 23l198 336q1 0 1 1q14 21 39 37q51 33 109 15q42 -13 68 -47q28 -35 28 -80v-323q0 -13 -9 -22t-22 -9zM511 374q-13 0 -22 9t-9 22
q0 41 -20 78q-22 41 -62 54q-17 6 -36 5.5t-33.5 -3.5t-28 -8.5t-18.5 -8t-8 -4.5q-10 -7 -22.5 -4t-19.5 13.5t-4 23t14 19.5q4 3 11 6.5t26.5 11.5t39 12t46.5 3.5t52 -8.5q63 -20 97 -83q28 -50 28 -107q0 -13 -9 -22t-22 -9zM554 233h-86q-12 0 -21 9t-9 21.5t9 21.5
t21 9h86q13 0 22 -9t9 -21.5t-9 -21.5t-22 -9zM578 96h-134q-12 0 -21 9t-9 21.5t9 21.5t21 9h134q13 0 22 -9t9 -21.5t-9 -21.5t-22 -9zM514 240q-13 0 -22 9t-9 22v323q0 45 28 80q26 34 68 47q58 18 109 -15q25 -16 39 -37q0 -1 1 -2l198 -335q7 -11 3.5 -23.5t-14 -18.5
t-23 -3t-19.5 14l-197 334q-10 12 -23 20q-26 17 -56 7q-23 -7 -38 -26q-14 -19 -14 -42v-323q0 -13 -9 -22t-22 -9zM514 371q-13 0 -22 9t-9 21q0 58 28 108q34 63 97 83q25 8 52 8.5t46.5 -4t39 -12t26.5 -11t11 -6.5l-32 -52v0q-3 2 -8 4.5t-18.5 8t-28 8.5t-33.5 3
t-36 -5q-40 -13 -62 -54q-20 -37 -20 -79q0 -12 -9 -21t-22 -9z" />
    <glyph glyph-name="kefu" unicode="&#xe615;" horiz-adv-x="1025" 
d="M367 378zM309 378q0 24 17 41t41 17t41 -17t17 -41t-17 -41t-41 -17t-41 17t-17 41zM658 378zM600 378q0 24 17 41t41 17t41 -17t17 -41t-17 -41t-41 -17t-41 17t-17 41zM986 388q-15 129 -81 234.5t-169.5 166.5t-223 61t-223 -61t-169.5 -166.5t-81 -234.5
q-17 -4 -27.5 -17.5t-10.5 -30.5v-89q0 -21 14.5 -35.5t34.5 -14.5v0q17 0 30.5 10t17.5 26l23 -7q37 -129 145.5 -212.5t245.5 -83.5q111 0 204.5 54.5t148 148t54.5 204t-54.5 204t-148 148t-204 54.5t-204 -54.5t-148 -148t-54.5 -204.5q0 -38 7 -75l-13 3v72
q0 15 -8.5 27.5t-21.5 18.5q14 120 76 219.5t158.5 156.5t208 57t208 -57t158.5 -156.5t76 -219.5q-14 -6 -22 -18.5t-8 -27.5v-89q0 -21 14.5 -35.5t34.5 -14.5v0q21 0 35.5 14.5t14.5 35.5v89q0 17 -11 30.5t-27 17.5zM137 340q0 47 11 93q264 5 471 129
q115 -103 253 -113q16 -53 16 -109q0 -101 -50.5 -187.5t-137 -137t-188.5 -50.5q-122 0 -219.5 71t-135.5 184l285 -84q0 -20 14.5 -34t34.5 -14q21 0 35.5 14.5t14.5 35t-14.5 35t-35.5 14.5q-26 0 -41 -21l-303 89q-10 42 -10 85z" />
    <glyph glyph-name="meizhuang" unicode="&#xe636;" 
d="M639 653q13 16 1 33q-5 8 -13.5 18.5t-36 35t-58 43.5t-79.5 34t-100.5 15t-100 -15.5t-79 -34.5t-57 -44t-34.5 -35.5t-13 -18.5q-12 -17 2 -33l196 -231q1 -1 2.5 -2l1.5 -1l-46 -418q-5 -20 9 -39q19 -24 67 -24h126q28 0 48.5 14.5t20.5 41.5q0 28 -46 427l1 0.5
l1 0.5zM299 469l-25 102q-3 11 3 21t17.5 12.5t21.5 -3.5t12 -17l28 -116zM316 315l6 56h77l6 -56h-89zM436 573l-20 -105h-57l21 115q3 11 12.5 17.5t20.5 4.5t18 -11.5t5 -20.5zM921 471h-11v300q0 61 -42 61q-14 0 -27.5 -8t-37.5 -27q-27 -22 -42 -31q-30 -20 -44.5 -46
t-16.5 -47v-202h-18q-16 0 -27.5 -11.5t-11.5 -27.5v-457q0 -16 11.5 -27.5t27.5 -11.5h239q16 0 27.5 11.5t11.5 27.5v457q0 16 -11.5 27.5t-27.5 11.5zM870 82q0 -12 -8 -20t-19.5 -8t-20 8t-8.5 20v253q0 12 8.5 20t20 8t19.5 -8t8 -20v-253z" />
    <glyph glyph-name="liansuodian" unicode="&#xe614;" 
d="M515 868q-100 0 -190.5 -39t-156 -104.5t-104 -156t-38.5 -190t38.5 -190t104 -156t156 -104.5t190.5 -39q153 0 278 87v0q13 11 13 27q0 15 -10.5 25.5t-25.5 10.5q-16 0 -26 -13v1q-104 -68 -229 -68q-114 0 -210.5 56t-152.5 153t-56 211t56 210.5t152.5 153t211 56.5
t211 -56.5t152.5 -153t56 -210.5q0 -141 -85 -254q-12 -10 -12 -26q0 -14 10.5 -24.5t25.5 -10.5q13 0 23 9v0v0q5 4 8 10q99 130 99 295q0 100 -38.5 190.5t-104 156t-156.5 104.5t-190 39v0zM515 868zM267 626h495v-63h-495v63zM762 532h-495l-32 -158v-53h32v-190h52h392
h51v190h32v52zM319 183v138h201v-138h-201zM711 183h-138v138h138v-138z" />
    <glyph glyph-name="shuxian-copy" unicode="&#xe601;" 
d="M290 900h52v-1033h-52v1033z" />
    <glyph glyph-name="iconfontjiantou1" unicode="&#xe631;" 
d="M352 384l384 384q10 10 10 22.5t-10 22t-22.5 9.5t-22.5 -9l-403 -403q-13 -13 -13 -26q0 -19 7 -26l409 -409q10 -10 22.5 -10t22.5 9.5t10 22.5t-10 23z" />
    <glyph glyph-name="arrow-right1" unicode="&#xe620;" 
d="M414 640l-60 -60l197 -196l-197 -197l60 -59l256 256z" />
    <glyph glyph-name="labeltag" unicode="&#xe611;" horiz-adv-x="1037" 
d="M447 -128q-8 0 -14 6l-427 427q-6 6 -6 14t6 13l499 505q6 6 13.5 6t13.5 -5.5t6 -13.5t-6 -14l-486 -491l401 -401l498 499q6 5 14 5t13.5 -5.5t5.5 -13.5t-6 -14l-512 -511q-5 -6 -13 -6v0zM959 383q-8 0 -14 5.5t-6 13.5v403h-420q-8 0 -14 5.5t-6 13.5t6 13.5t14 5.5
h459v-441q0 -7 -5.5 -13t-13.5 -6v0v0zM777 544q-38 0 -65 27t-27 65.5t27 65.5t65 27t65.5 -27.5t27.5 -65.5t-27.5 -65t-65.5 -27v0zM777 690q-22 0 -38 -15.5t-16 -38t16 -38.5t38.5 -16t38 16t15.5 38.5t-15.5 38t-38.5 15.5v0zM778 610l-27 27l259 259l27 -27zM447 46
l-27 27l324 324l27 -27zM292 202l-27 27l324 324l27 -28zM214 279l-27 27l324 324l27 -27zM434 189l-27 27l259 259l28 -27zM370 124l-27 27l25 26l28 -27zM437 229v0v0z" />
    <glyph glyph-name="yanjing" unicode="&#xe618;" 
d="M26 357q-1 -5 2 -10v-2v-1h1q4 -5 10 -6q2 -1 3 -1q4 0 8 3q0 -1 -0.5 -1.5t-0.5 -1.5q-5 -46 17.5 -105t48.5 -85q18 -16 55 -26t80 -10v0q88 0 123 37q35 36 59 90l42 56q5 6 4 12.5t-7 10.5q-7 6 -16 2q1 16 -2 30q21 -2 54 -3h12q30 0 52 3q-3 -14 -2 -30
q-9 4 -16 -2q-6 -4 -7 -10.5t4 -12.5l42 -56q24 -55 59 -90q35 -37 123 -37q43 0 80 10t55 26q26 26 48.5 85t17.5 105q0 1 -0.5 1.5t-0.5 1.5q4 -3 8 -3q1 0 3 1q6 1 10 6h1q0 1 1 3q2 5 1 10q0 1 -1 5q4 22 1.5 68t-7.5 92t-24 85.5t-48 48.5q-13 4 -41 -14q-9 2 -14 -3
l-76 -67q-9 -9 -3 -20q5 -6 10 -9.5t7 -3.5h3q2 0 5 1q14 2 27.5 17t20.5 32l28 25q7 7 4 17q18 11 23 9q28 -8 44 -52t20.5 -91t4.5 -100q-34 53 -105 55h-31q-71 2 -128.5 1t-96.5 -15.5t-47 -43.5q-3 -11 7 -18q-3 -5 -5 -9q-27 -5 -68 -4q-40 0 -60 4q-2 5 -5 9
q11 7 7 18q-7 29 -46 43.5t-97 15.5t-130 -1h-9.5t-11.5 -0.5t-9 -0.5q-70 -1 -105 -54q-1 53 4 100t21 91t44 52q5 2 23 -9q-3 -10 4 -17l28 -25q7 -17 20.5 -32t27.5 -17q3 -1 5 -1q10 -1 20 13q6 11 -3 20l-75 67q-6 5 -15 3q-28 18 -41 14q-29 -9 -48 -48.5t-24 -85.5
t-7.5 -92t1.5 -68q-1 -1 -1 -2.5v-2.5zM614 385q24 13 73 21.5t101 8.5q92 0 138 -26q28 -16 32 -54q6 -44 -16 -99t-45 -76q-15 -14 -49.5 -23t-73.5 -9q-81 0 -111 31q-18 19 -34 45q5 0 8 3q5 4 6 11t-3 12l-50 66q-16 67 24 89zM66 335q4 38 32 54q46 26 138 26
q52 0 101 -8.5t73 -21.5q39 -21 24 -89l-50 -66q-4 -5 -3 -12t6 -11q4 -3 8 -3q-15 -26 -33 -45q-31 -31 -112 -31q-39 0 -73.5 9t-49.5 23q-23 21 -45 76t-16 99z" />
    <glyph glyph-name="yanjing2" unicode="&#xe61a;" 
d="M88 415h29q15 0 15 -9t-15 -9h-29q-14 0 -14 9t14 9zM152 343q11 13 13 27q2 13 4.5 22t8 19t16 15t26.5 5l13.5 0.5t19.5 0.5t22 -0.5t25.5 -1.5t25.5 -3t27 -5t25.5 -7t24.5 -9t20 -12.5t17 -16.5q9 -11 10 -33t-5 -35q-14 -40 -45 -72.5t-86 -41.5q-35 -5 -72 2
q-88 15 -109 93q-6 25 19 53zM587 377q7 9 17 16.5t20 12.5t24.5 9t25.5 7t27 5t26 3t25.5 1.5t22 0.5t19.5 -0.5l13 -0.5q16 0 26.5 -5t16 -15t8 -19t4.5 -22q2 -14 13 -27q25 -28 19 -53q-4 -17 -13 -31.5t-24.5 -30t-43.5 -25t-64 -10.5q-38 -1 -68.5 10t-49.5 30.5
t-30.5 37.5t-18.5 38q-6 13 -4.5 35t9.5 33v0zM904 415h29q15 0 15 -9t-15 -9h-29q-14 0 -14 9t14 9zM83 305q4 -22 12 -42t23.5 -42.5t44 -38.5t67.5 -21q35 -5 73 -3q23 1 45.5 6t48.5 16.5t47 35.5t31 57q1 5 3.5 15.5t4 16.5t4.5 12t6 8q8 7 19 7t18 -6q3 -2 7 -10
t9 -20t9 -18q11 -20 25 -38t36 -38t52 -32t65 -12q1 2 10.5 0t27 1.5t38 7t42.5 15t40.5 27t33 42.5t18.5 61q4 25 24 66q11 23 11 48q0 20 -5 32q-2 7 -15.5 25.5t-16.5 29.5q-25 95 -44 141q-6 14 -19.5 30.5t-26.5 24.5q-30 19 -63 -14q-9 -8 -13 -18q-3 -8 0.5 -14.5
t10.5 -6.5q8 1 26 21q8 11 19 11q15 0 27.5 -29.5t18.5 -59.5l6 -29l10 -55q2 -15 -7 -26t-24 -11q-177 -5 -245 -36q-9 -4 -31 -18.5t-31 -19.5q-28 -12 -44 -12q-17 0 -36 11q-46 29 -63 36q-46 19 -117 29t-134 10q-15 0 -23.5 10t-6.5 25l15 86q1 5 2.5 13t6.5 28
t10.5 35.5t14.5 28.5t18 13q11 0 19 -11q17 -20 26 -20q7 0 10.5 6.5t0.5 14.5q-5 9 -13 17q-33 33 -64 14q-12 -8 -25.5 -24.5t-19.5 -30.5q-23 -55 -53 -177q-2 -10 -3 -18t-0.5 -13t2.5 -5l-2 -2q-12 -7 -19 -16q-11 -12 -11 -31q0 -29 10 -53q3 -5 10 -19t11.5 -24.5
t5.5 -19.5v0z" />
    <glyph glyph-name="1" unicode="&#xe612;" 
d="M510 -76q-94 0 -179 36.5t-147 98.5t-98.5 147t-36.5 179t36.5 179t98.5 147t147 98.5t179 36.5t179 -36.5t147 -98.5t98.5 -147t36.5 -179t-36.5 -179t-98.5 -147t-147 -98.5t-179 -36.5zM510 809q-115 0 -212.5 -57t-154.5 -154.5t-57 -212.5t57 -212.5t154.5 -154.5
t212.5 -57t212.5 57t154.5 154.5t57 212.5t-57 212.5t-154.5 154.5t-212.5 57zM279 569v31h456v-31h-178v-148h163v-32h-163v-188h190v-31h-474v31h69v285h42v-285h129v368h-234z" />
    <glyph glyph-name="arrow-left-copy" unicode="&#xe607;" 
d="M670 580l-60 60l-256 -256l256 -256l60 59l-196 197z" />
    <glyph glyph-name="mendian1" unicode="&#xe613;" 
d="M130 872h749v-135h-749v135zM1008 585h-1007l129 125h749zM156 585v-177q0 -21 -15.5 -35t-37 -14t-36.5 14t-15 35v177h-52v-177q0 -40 30.5 -68.5t73.5 -28.5t73.5 28.5t30.5 68.5v177h-52zM356 585v-177q0 -21 -15.5 -35t-37 -14t-36.5 14t-15 35v177h-52v-177
q0 -40 30.5 -68.5t73.5 -28.5t73.5 28.5t30.5 68.5v177h-52zM556 585v-177q0 -21 -15.5 -35t-37 -14t-36.5 14t-15 35v177h-52v-177q0 -40 30.5 -68.5t73.5 -28.5t73.5 28.5t30.5 68.5v177h-52zM756 585v-177q0 -21 -15.5 -35t-37 -14t-36.5 14t-15 35v177h-52v-177
q0 -40 30.5 -68.5t73.5 -28.5t73.5 28.5t30.5 68.5v177h-52zM956 585v-177q0 -21 -15.5 -35t-37 -14t-36.5 14t-15 35v177h-52v-177q0 -40 30.5 -68.5t73.5 -28.5t73.5 28.5t30.5 68.5v177h-52zM0 585h1008v-61h-1008v61v0zM121 346h54v-359h-54v359zM573 390h54v-403h-54
v403zM836 360h54v-373h-54v373zM704 167q0 -12 -8.5 -21t-21 -9t-21 9t-8.5 21t8.5 20.5t21 8.5t21 -8.5t8.5 -20.5zM1008 -73h-1004l79 81h846zM4 -73h1004v-27h-1004v27z" />
    <glyph glyph-name="map" unicode="&#xe609;" horiz-adv-x="1357" 
d="M247 633h421q13 -39 39 -90h-428l-154 -453h1103l-146 407q36 64 55 111l2 -5l216 -603v-128h-1355v128l20 59l195 574h32zM281 421l-10 -30h160l143 -46l-4 -18l-192 2l-80 -200l92 -1l44 141l123 -1l-32 -141l104 -2l11 142l126 -1l37 -95h336l-24 69h-272l-37 86
l-161 1l5 66l-182 38v35h251l-12 30h-239v26h-38l-5 -26h-118l-9 -30h122l-8 -45h-131zM907.5 896q-78.5 0 -134 -55.5t-55.5 -134.5q0 -30 24.5 -86t50.5 -100t66 -109l48 -78q8 13 48.5 78t66.5 109.5t50.5 100t24.5 85.5q0 79 -55.5 134.5t-134 55.5zM967 766.5
q-25 24.5 -60 24.5t-60 -24.5t-25 -60t25 -60t60 -24.5t60 24.5t25 60t-25 60z" />
    <glyph glyph-name="shebei" unicode="&#xe6bc;" 
d="M241 197q-17 0 -29 -11.5t-12 -28.5t12 -29t29 -12t28.5 12t11.5 29t-11.5 28.5t-28.5 11.5zM837 -19h-623q-6 0 -10 -4t-4 -10v-13q0 -6 4 -10t10 -4h623q5 0 9 4t4 10v13q0 6 -4 10t-9 4zM877 739h-731q-6 0 -10 -4t-4 -9v-434q0 -5 4 -9t10 -4h731q6 0 10 4t4 9v434
q0 5 -4 9t-10 4zM931 807h-839q-11 0 -19 -8t-8 -19v-759q0 -11 8 -19t19 -8h839q12 0 20 8t8 19v759q0 11 -8 19t-20 8zM918 48q0 -5 -4 -9t-10 -4h-785q-6 0 -10 4t-4 9v705q0 5 4 9t10 4h785q6 0 10 -4t4 -9v-705zM877 252h-731q-6 0 -10 -4t-4 -10v-162q0 -6 4 -10
t10 -4h731q6 0 10 4t4 10v162q0 6 -4 10t-10 4zM241 89q-28 0 -48 20t-20 48t20 48t48 20t47.5 -20t19.5 -48t-19.5 -48t-47.5 -20zM850 137q0 -7 -7 -7h-474q-6 0 -6 7v13q0 7 6 7h474q7 0 7 -7v-13z" />
    <glyph glyph-name="yanjing01" unicode="&#xe723;" 
d="M960 233v0.5v1v1v0.5v0.5v1.5l-75 466q-1 8 -8 12.5t-15 3.5l-74 -19q-8 -1 -12 -8t-2 -14.5t8.5 -11.5t14.5 -2l54 14l62 -385q-19 56 -67.5 91.5t-109.5 35.5q-53 0 -98 -28t-68 -74q-23 28 -58 28t-58 -28q-23 46 -67.5 74t-98.5 28q-61 0 -110 -35.5t-67 -92.5
l62 386l54 -14q8 -2 14.5 2t8.5 11.5t-2 14.5t-12 8l-74 19q-8 1 -15 -3.5t-8 -12.5l-75 -466q-1 -9 4.5 -15.5t14.5 -6.5h19q7 -71 60.5 -119.5t125.5 -48.5q77 0 132 54.5t55 132.5q0 13 -3 28q3 5 3 9q0 15 11 26t26 11t26 -11t11 -26q0 -4 3 -9q-3 -16 -3 -28
q0 -78 55 -132.5t132 -54.5q72 0 125.5 48.5t60.5 119.5h19v0h3t1.5 0.5t1.5 0.5l3 1.5t3 2t2 2.5q2 1 3 3q0 1 0.5 2.5zM288 85q-62 0 -105.5 44t-43.5 105.5t43.5 105.5t105.5 44t105.5 -44t43.5 -105.5t-43.5 -105.5t-105.5 -44zM736 85q-62 0 -105.5 44t-43.5 105.5
t43.5 105.5t105.5 44t105.5 -44t43.5 -105.5t-43.5 -105.5t-105.5 -44z" />
    <glyph glyph-name="ditu1" unicode="&#xe637;" 
d="M931 780l-181 42q-11 3 -20 -2l-212 -97l-195 82q-12 4 -23 0l-210 -82q-19 -8 -19 -28v-577q0 -16 13 -25t28 -3l199 77l196 -81q5 -3 11 -3q7 0 13 3l16 7l-27 55l-2 -1l-195 81q-6 2 -12 2t-11 -2l-169 -65v511l180 70l196 -82q12 -5 24 0l215 99l147 -34v-514l-28 6
l-15 -29q-3 -8 -7 -15l-1 -1l-5 -11l80 -18q14 -3 25.5 6t11.5 23v577q0 11 -6.5 19t-16.5 10zM299 666v-366q0 -5 3.5 -8.5t8.5 -3.5t8.5 3.5t3.5 8.5v366q0 5 -3.5 8.5t-8.5 3.5t-8.5 -3.5t-3.5 -8.5zM506 595v-184q0 -5 3.5 -8.5t8.5 -3.5t9 3.5t4 8.5v184q0 5 -4 8.5
t-9 3.5t-8.5 -3.5t-3.5 -8.5zM759 469v223q0 5 -3.5 8.5t-8.5 3.5t-8.5 -3.5t-3.5 -8.5v-223q0 -5 3.5 -8.5t8.5 -3.5t8.5 3.5t3.5 8.5zM674.5 411q-59.5 0 -101.5 -42t-42 -102q0 -38 19 -71v0l14 -28l27 -55l84 -169l114 230l10 22v0q9 16 14 35q5 18 5 36q0 60 -42 102
t-101.5 42zM675 225q-25 0 -43 17.5t-18 42.5t18 42.5t43 17.5t42.5 -17.5t17.5 -42.5t-17.5 -42.5t-42.5 -17.5z" />
    <glyph glyph-name="wangyuanjing" unicode="&#xe6b1;" 
d="M893 187zM492 558zM568 557zM977 240v0v0q0 9 -1 19h-5q-2 24 -19 54v0q0 1 0.5 1h1.5l2 1l-141 343v1v0q-14 39 -48 62.5t-75 23.5q-55 0 -94 -39t-39 -94v-6q1 -4 1 -6v-2l4 -26h-69l4 26v2v6q1 3 1 6q0 55 -39 94t-94 39q-41 0 -75.5 -23.5t-49.5 -62.5v-1l-148 -343
l-2 -0.5t-2 -1.5v0q-12 -27 -12 -72l4 1v0v0q0 -74 47 -125t118 -59q14 -1 19 -1q11 0 17 1q3 0 9 1l3 0.5t5 0.5q4 1 11 2q1 1 2.5 1t2.5 1q6 1 13 4l1 0.5l1 0.5q7 2 14 6v0v0q37 18 63 49.5t36 71.5v0.5v0.5q2 7 3 15v0.5v0.5v1v1l1 4v1v2l21 158h120l22 -158v-2v-1l1 -4
v-1v-1v-0.5v-0.5q1 -8 3 -15v-0.5v-0.5q10 -40 36 -71.5t62 -49.5h1q7 -4 14 -6l1 -0.5l1 -0.5q7 -3 13 -4q1 -1 2.5 -1.5t2.5 -0.5q7 -1 11 -2q1 0 8 -1q8 -2 9 -2q9 -1 17 -1q10 0 19 1q70 8 117.5 60t47.5 123v0v0v0zM692 708q30 0 55 -17.5t36 -45.5v-2l103 -245
q-43 25 -93 25t-93 -25.5t-67 -68.5l-36 273q-1 4 -1 8v2q0 40 28 68t68 28zM275 643q1 1 1 2q11 28 36 45.5t55 17.5q39 0 67.5 -28t28.5 -68v-2q-1 -4 -1 -8l-36 -273q-24 43 -67 68.5t-93 25.5t-93 -25zM190 111q-35 19 -58.5 54t-23.5 75v0q0 3 3 8t3 7q0 1 1.5 1.5
t1.5 1.5q1 2 2 6.5t2 6.5l0.5 0.5l0.5 0.5q1 4 4 14v0v1q3 6 6 13q17 39 53.5 63t80.5 24q60 0 103 -43t43 -104v-14l-1 -4v-1.5v-0.5v-1v0q-5 -36 -27 -65.5t-55 -45.5v0q-5 -3 -11 -5l-1 -0.5l-1 -0.5q-5 -2 -10 -3q-1 0 -2 -1h-2q-5 -1 -9 -2q-1 0 -6 -1q-6 -1 -7 -1
q-8 -1 -17 -1q-40 0 -73 18zM474 417l16 119h78l16 -119h-110zM793 93q-6 0 -14 1q-1 0 -7 1q-5 1 -6 1q-4 1 -9 2l-1.5 0.5t-2.5 0.5q-5 1 -10 3q-1 0 -1.5 0.5l-0.5 0.5q-6 2 -11 5h-1q-32 16 -54 45.5t-27 65.5v0v1v0.5v1.5l-1 4q-1 7 -1 14q0 61 43 104t104 43
q44 0 80 -24t54 -63q3 -6 5 -13l0.5 -0.5l0.5 -0.5q2 -6 3 -14l0.5 -0.5l0.5 -0.5q1 -6 2 -13q0 -1 -1.5 -1.5t-1.5 -1.5q0 -2 -1 -7.5t-1 -7.5v0q0 -42 -20 -76t-54 -53q-33 -18 -67 -18zM279 319.5q0 7.5 -5 13t-13 5.5q-12 0 -23 -3q-32 -8 -52.5 -34t-20.5 -60
q0 -7 5.5 -12.5t13 -5.5t12.5 5.5t5 12.5q0 21 13 37.5t33 20.5q7 2 14 2q8 0 13 5.5t5 13zM793 338q-11 0 -23 -3q-32 -8 -52.5 -34t-20.5 -60q0 -7 5.5 -12.5t13 -5.5t13 5.5t5.5 12.5q0 21 12.5 37.5t32.5 20.5q7 2 14 2q8 0 13.5 5.5t5.5 13t-5.5 13t-13.5 5.5z" />
    <glyph glyph-name="5xing" unicode="&#xe632;" horiz-adv-x="6144" 
d="M512 46l316 -174l-60 370l256 263l-353 53l-159 338l-159 -338l-353 -53l256 -263l-60 -370zM1792 46l316 -174l-60 370l256 263l-353 53l-159 338l-159 -338l-353 -53l256 -263l-60 -370zM3072 46l316 -174l-60 370l256 263l-353 53l-159 338l-159 -338l-353 -53
l256 -263l-60 -370zM4352 46l316 -174l-60 370l256 263l-353 53l-159 338l-159 -338l-353 -53l256 -263l-60 -370zM5632 46l316 -174l-60 370l256 263l-353 53l-159 338l-159 -338l-353 -53l256 -263l-60 -370z" />
    <glyph glyph-name="yanjing1" unicode="&#xe66f;" 
d="M753 224q-1 1 -6.5 0t-16.5 1t-23.5 4t-27.5 10t-28.5 18.5t-26 29t-19.5 41.5q-10 24 -5.5 42t12.5 31t23.5 21t29 13t28.5 7.5t21.5 3t8.5 0.5q6 0 17 0.5t39 -2t49.5 -8.5t39 -22.5t17.5 -40.5q0 -68 -33.5 -108.5t-98.5 -40.5zM409 328q-10 -32 -29 -54.5t-39 -32
t-38.5 -14t-30.5 -4.5h-12q-65 0 -98.5 41t-33.5 108q0 73 164 73q2 0 5.5 -0.5t14 -1.5t19.5 -3.5t22.5 -6.5t22.5 -10t19.5 -14.5t14 -20t5.5 -27t-6 -33.5zM961 469q0 4 -4 5q-5 2 -6 2q-56 9 -86 11l-69 3q-71 4 -132 -4q-45 -6 -79 -17q-6 -2 -19 -6.5t-20 -7.5
q-34 -11 -62 -5q-16 3 -38 10q-44 15 -68 19q-67 13 -132 12q-56 0 -96 -5q-27 -3 -76 -10l-16 -4q-5 -1 -5 -6q-1 -40 -1 -45q0 -2 1 -7q0 -3 3 -4q4 -2 5 -3q10 -7 16 -24q1 -3 2 -6.5t2 -7.5t1 -7q1 -1 2.5 -5.5t1.5 -6.5q2 -8 6.5 -28.5t6.5 -31.5q7 -32 19 -55
q15 -30 44 -42q17 -7 38 -11q32 -5 69 -2q39 3 70 12q29 9 47 25q35 30 52 63q20 38 28 63q5 19 7 23q6 17 23 19q6 1 11 1q16 -1 23 -10q4 -5 6 -10q6 -13 9 -22q10 -33 37 -80q20 -35 60 -58q25 -13 56 -19q40 -8 88 -6q30 1 53 8q29 9 45 29q10 13 17 32q11 28 22 75
q4 18 8 37l5 19q4 12 7 17q7 10 14 12q4 2 4.5 6t0.5 6v27q0 4 -0.5 11t-0.5 9z" />
    <glyph glyph-name="yanjing3" unicode="&#xe671;" 
d="M739 277q-1 1 -11 -0.5t-28 4t-36 13.5t-36 29t-28 51q-9 32 -1.5 52.5t26 32.5t37.5 17.5t34 6.5l15 2q6 0 16.5 0.5t36.5 -2t46 -8.5t36.5 -21t16.5 -38q0 -63 -31.5 -101t-92.5 -38zM417 374q-32 -98 -140 -98q-61 0 -92.5 38.5t-31.5 101.5q0 22 16 37.5t38.5 21
t45 8t38.5 1.5h16q2 -1 5 -1t13 -1t18.5 -3t21 -6t21 -9.5t18.5 -14t13.5 -19t5.5 -25t-6 -31.5zM934 506q0 4 -4 5t-5 2q-52 8 -81 10q-21 1 -64 3q-67 4 -124 -4q-43 -5 -74 -16l-18 -6t-19 -6q-31 -11 -58 -6q-15 3 -35 10q-42 14 -64 18q-63 12 -124 11q-52 0 -90 -5
q-26 -3 -71 -9q-4 -1 -15 -4q-5 -1 -5 -5q-1 -38 -1 -43q0 -1 1 -6q0 -3 3 -4q3 -2 5 -3q9 -6 14 -23q1 -2 2 -5.5l2 -7t2 -6.5q0 -1 1.5 -5t1.5 -6q2 -8 6 -27t6 -29q7 -31 18 -52q14 -28 41 -40q16 -6 35 -9q31 -5 66 -3q36 3 65 12q27 8 44 23q33 29 49 59q19 36 26 59
q5 18 7 22q5 16 21 18q6 1 11 1q15 -1 21 -10q4 -5 6 -9q5 -12 8 -21q10 -31 35 -74q19 -34 57 -55q22 -12 52 -18q37 -8 82 -6q28 1 50 8q27 8 42 27q9 13 16 30q11 26 20 70q4 17 8 35q1 0 5 17q3 12 7 17q6 9 12 11q4 2 5 6t1 5q0 17 -1 26q0 3 -0.5 9.5t-0.5 8.5z" />
    <glyph glyph-name="15tiantuihuo" unicode="&#xe616;" 
d="M0 896v-1024h1024v1024h-1024zM977 -82h-932v935h932v-935zM466 233h-64l1 346h-39q0 -2 -0.5 -10t-1 -11t-2 -10.5t-3.5 -10.5t-6.5 -8t-10 -7.5t-14 -4.5t-19.5 -2v-38h57v-244h-64v-38h166v38v0zM613 445h-58v95h173v39h-211v-172h77q44 0 70.5 -27t27 -59.5
t-25 -59.5t-72.5 -27h-77v-39h96q32 0 57 14t37.5 36t18 48.5t-1 53.5t-19.5 49t-37.5 35.5t-54.5 13.5z" />
    <glyph glyph-name="huli" unicode="&#xe6c4;" 
d="M578 660v49q0 8 -6 14t-15 6h-41q-9 0 -15 -6t-6 -14v-48q19 2 41 2q20 0 42 -3zM834 458q-10 82 -89 140q-54 40 -127 56v55q0 24 -16.5 42t-40.5 19v56h35q10 0 17.5 7.5t7.5 17.5t-7.5 17.5t-17.5 7.5h-111q-9 0 -16.5 -7t-7.5 -17q-55 -28 -81 -57q-5 -6 -5 -14
t6 -14t14 -6q9 0 16 7q12 14 35 28.5t37 21.5t18 8h-1h16v-56v0q-26 0 -44 -18t-18 -43v-55q-73 -15 -128 -56q-90 -67 -90 -163h2v-373q0 -68 48.5 -116.5t116.5 -48.5h267q68 0 117 48.5t49 116.5v396h-2zM495 709q0 8 6 14t15 6h41q9 0 15 -6t6 -14v-49q-22 3 -42 3
q-22 0 -41 -2v48zM662 241q0 -25 -17.5 -42.5t-42.5 -17.5h-129q-24 0 -41.5 17.5t-17.5 42.5v125q0 24 17.5 41.5t41.5 17.5h129q25 0 42.5 -17.5t17.5 -41.5v-125z" />
    <glyph glyph-name="30tianwuyoutuihuo" unicode="&#xe60a;" 
d="M512 782q165 -39 343 -104v-312v-2v-2q0 -7 -0.5 -15.5t-7 -38.5t-18 -58t-37 -67t-60.5 -72t-92 -67t-128 -58q-70 24 -127 57.5t-92 66t-60.5 70.5t-37 66t-18.5 58t-7.5 40t-0.5 18v2v2v312q183 67 343 104zM512 845h-6q-244 -63 -398 -123v-355q-1 -6 -0.5 -17.5
t7.5 -47t20.5 -69.5t43.5 -79.5t71 -85t109 -79t153 -66.5q67 21 123.5 50t95.5 58t70.5 65t50.5 65t33 64t19.5 55.5t8.5 46t3 29.5v11v354q-117 44 -233 78t-166 45q-2 1 -5 1v0zM338 448q22 8 43 19t37.5 26t26 34t9.5 43q0 16 -5.5 28.5t-15.5 21t-23 13t-28 4.5
q-16 0 -26.5 -3.5t-17 -9t-10 -13t-3.5 -16.5q0 -12 5 -23t15 -19l-1 -3q-13 -6 -24 -6q-8 0 -15 2t-12 7t-7.5 11.5t-2.5 15.5q0 13 5.5 24t16 20t23.5 16t27.5 12t29.5 7.5t28 2.5q19 0 35.5 -4.5t29.5 -14.5t21 -24t8 -33q0 -16 -5 -31t-13.5 -27.5t-19.5 -24t-24 -20.5
t-26.5 -16.5t-26.5 -13.5v-1h3h2h5q23 0 45 -7t38.5 -20t27 -32.5t10.5 -43.5q0 -22 -7 -41.5t-19.5 -36t-29 -29t-36 -21.5t-40.5 -13.5t-43 -4.5q-9 0 -19.5 1t-21.5 4t-21 7t-18 10.5t-12.5 15t-4.5 19.5q0 6 2.5 11.5t7 10t10.5 7.5t13 3q7 -16 16.5 -27.5t21 -19
t24.5 -11t26 -3.5q18 0 35 7t31 20t22 31.5t8 41.5q0 25 -9 44t-23.5 32t-34 20t-40.5 7h-7q-4 0 -7 -0.5t-7 -0.5zM679 630q25 0 46.5 -9.5t37.5 -28.5t24.5 -46t8.5 -63q0 -26 -4.5 -48.5t-13 -41.5t-20.5 -34t-27 -25t-31.5 -15.5t-35.5 -5.5q-25 0 -46.5 9.5t-37.5 28
t-25 46t-9 63.5q0 25 4.5 47.5t13 41.5t21 34t27 25.5t31.5 16t36 5.5zM677 340q18 0 31.5 9t23 25t14.5 38.5t5 49.5q0 18 -2.5 36t-8 33.5t-13 28.5t-17 22.5t-21 14.5t-25.5 5q-15 0 -29 -8t-24 -24t-15.5 -38.5t-5.5 -50.5t6 -53.5t17.5 -45t27.5 -31t36 -11.5z" />
    <glyph glyph-name="man" unicode="&#xe652;" 
d="M737 615q0 90 -66.5 153.5t-160 63.5t-160 -63.5t-66.5 -153.5v-28v-21q0 -64 30 -135.5t83.5 -123t113 -51.5t113 51.5t83.5 123t30 135.5v21v28zM890 149q-66 58 -215 125q-1 0 -1 -0.5v-0.5v-17q0 -89 -30.5 -160.5t-78.5 -100.5l-24 122l25 28l-54 50l-55 -50l25 -28
l-24 -124q-49 29 -80.5 100.5t-31.5 162.5q0 3 1 17q-149 -67 -214 -124q-19 -18 -33.5 -46.5t-21.5 -54.5t-11 -55t-4.5 -40.5t-0.5 -16.5h347h206h346v0q0 7 -0.5 17.5t-4.5 40t-10.5 55t-21 54t-34.5 46.5z" />
    <glyph glyph-name="glass" unicode="&#xe61b;" horiz-adv-x="1537" 
d="M1470 591q-1 7 -7 9q-7 2 -10 2q-87 14 -135 17q-34 2 -108 6q-113 5 -209 -7q-73 -10 -126 -27q-9 -3 -29.5 -10t-31.5 -11q-54 -17 -99 -8q-25 4 -59 16q-70 22 -108 29q-105 20 -209 18q-89 0 -152 -7l-120 -16q-6 -1 -25 -6q-8 -2 -8 -9q-2 -53 -2 -71q0 -1 1 -10
q1 -5 5 -7q7 -2 9 -4q15 -11 25 -37q1 -5 2.5 -10t3 -11.5t2.5 -10.5q1 -2 3 -8.5t3 -10.5q3 -12 10 -44t11 -49q11 -50 29 -84q25 -48 70 -67q27 -11 60 -16q51 -8 110 -4q61 5 111 20q45 13 73 37q49 42 79 99q25 46 48 120q8 28 11 35q10 26 37 30q8 1 17 1q25 -2 36 -15
q7 -9 10 -16q9 -20 13 -35q25 -76 65 -144q34 -60 90 -90q38 -21 88 -31q64 -12 139 -9q47 2 83 13q46 14 71 45q16 20 28 50q18 42 34 115q7 30 14 57q0 1 8 29q5 20 10 27q12 16 22 19q6 3 7.5 9.5t1.5 9.5v42q-1 6 -1.5 17t-0.5 13zM92.5 547q-27.5 0 -27.5 6.5t27.5 6.5
t27.5 -6.5t-27.5 -6.5zM626 397q-15 -60 -47 -116q-20 -33 -42 -54q-30 -29 -78 -42q-91 -23 -180 -10q-10 2 -35 8q-35 9 -56 41q-21 31 -31 74q-11 43 -17 105q-3 31 1 62q3 25 5 31q12 53 65 68q46 11 99 16q7 0 66 4q91 -1 152 -15q41 -10 56 -18q14 -7 25 -17
q17 -14 22 -40q7 -43 -5 -97zM1363 413q-2 -78 -27 -145q-12 -32 -31 -51q-21 -20 -59 -30q-33 -9 -82 -9q-59 -1 -125 13q-60 13 -99 63q-48 60 -67 140q-10 44 -9 72q0 16 3 32q7 37 45 52q29 12 74.5 21t85.5 12q6 0 60 3q106 -6 165 -22q9 -3 27 -12q13 -6 19 -18
q10 -20 13 -29q5 -12 6 -35q2 -42 1 -57v0zM1411 547q-28 0 -28 6.5t28 6.5t28 -6.5t-28 -6.5v0zM1411 547z" />
    <glyph glyph-name="13" unicode="&#xe61c;" 
d="M511.5 795q83.5 0 160.5 -32q73 -31 130 -88t88 -131q33 -76 33 -159.5t-33 -160.5q-31 -73 -88 -130t-130 -88q-77 -33 -160.5 -33t-159.5 33q-74 31 -131 88t-88 130q-32 77 -32 160.5t32 159.5q31 74 88 131t131 88q76 32 159.5 32zM512 832q-91 0 -174 -35.5
t-143 -95.5t-95.5 -143t-35.5 -174t35.5 -174t95.5 -143t143 -95t174 -35t174 35t143 95t95 143t35 174t-35 174t-95 143t-143 95.5t-174 35.5v0zM676 417l53 131v35h-168v-436h38v400h89l-56 -139l3 -3q62 -53 62 -106v0q1 -30 -11 -42q-10 -10 -28 -10h-3v0q-8 0 -21 2v0
h-29l3 -8q4 -11 5 -26l1 -6h51q35 2 53 25q17 22 17 63q2 65 -59 120zM419 622h-39v-85h-93v-369h38v37h151v-37h38v369h-95v85zM476 353v-112h-57v112h57zM419 389v111h57v-111h-57zM380 353v-112h-55v112h55zM380 500v-111h-55v111h55z" />
    <glyph glyph-name="kefu1" unicode="&#xe747;" 
d="M431 214q-6 -17 -21.5 -28t-34.5 -11q-25 0 -43 18t-18 43t18 43t43 18q19 0 34.5 -11t21.5 -28l-44 -22l44 -22v0zM715 214q-6 -17 -21.5 -28t-34.5 -11q-25 0 -43 18t-18 43t18 42.5t43 17.5q19 0 34.5 -10.5t21.5 -27.5l-44 -22l44 -22v0zM965 219q-11 -38 -46 -58
q-26 -21 -60 -21h-4q-27 -121 -120 -194.5t-222 -73.5t-222 73.5t-121 194.5q-27 0 -50 14q-48 17 -61 65q-14 54 24 93v35q-4 201 114 320q55 56 132 86q6 53 58 90t122 37t121.5 -37t57.5 -90q78 -30 133 -86q117 -119 113 -320q1 -14 0 -29q46 -40 31 -99v0zM509 847
q-52 0 -92.5 -23.5t-51.5 -59.5q66 19 143 19h2q77 0 143 -19q-12 36 -52 59.5t-92 23.5v0zM883 347q4 180 -99 284q-99 101 -274 101h-1h-1q-175 0 -274 -101q-103 -104 -99 -284v-4q5 2 11 1.5t10.5 -1.5t9 -3.5t7 -4t5 -4l2.5 -2.5q25 9 48 25.5t37 32.5t25.5 33.5
t15.5 25.5t5 11q3 6 9 8.5t12.5 0t9 -8.5t-0.5 -12q-2 -5 -6 -13.5t-17 -28.5t-28.5 -37.5t-41 -36.5t-54.5 -29q-2 -41 -2 -51v-18q0 -144 89.5 -235.5t230.5 -91.5h1q110 0 190 56.5t112 153.5q-9 -10 -17 -18q-53 -54 -125 -83q-50 -20 -107 -27q-3 -12 -17.5 -20.5
t-33.5 -8.5q-22 0 -37.5 10t-15.5 24.5t15.5 25t37.5 10.5q32 0 47 -19q86 9 154.5 51t111.5 110q5 30 5 62v2q-1 2 -2 2q-15 20 -34.5 34.5t-46 24t-44.5 14.5t-52 12q-69 15 -103 28q-35 13 -68 34.5t-53.5 40.5t-39 40.5t-24 30t-9 14.5t-2 12.5t7.5 9.5t12.5 1.5
t9.5 -7.5q3 -4 8 -11.5t22 -27.5t36 -37.5t49.5 -37.5t62 -32t98.5 -26q42 -9 65 -15t56 -22t56 -39l2 2q1 26 3 32v2q-1 2 2 9t13 15t25 8v1v2v0z" />
    <glyph glyph-name="qqkefu" unicode="&#xe61d;" 
d="M333 -128q-57 0 -113 23q-62 27 -72 76q-5 27 7 53q-1 16 7 31q11 20 35 35q-13 19 -24 40q-36 -41 -71 -34q-28 6 -37 43q-13 52 8 140t77 146q-14 45 5 76q1 38 30 63v1q11 75 36 133.5t56 94t71.5 58.5t77.5 32.5t78 11.5q11 1 25 1q57 0 111 -22t99.5 -62t75 -104.5
t33.5 -141.5q48 -53 35 -134q9 -13 18 -27t22 -37.5t21.5 -49.5t14.5 -55t4.5 -61.5t-11.5 -63.5q-4 -19 -14.5 -30t-17.5 -13t-14 -2q-30 0 -59 41q-10 -21 -21 -39q33 -19 41 -60q12 -20 14 -42t-5 -33q-4 -6 -8 -11q-19 -28 -68.5 -51.5t-108.5 -23.5q-85 0 -162 52h-26
q-76 -54 -170 -54zM208 -3l-0.5 -2.5t-1 -6t1.5 -8.5q5 -17 36 -30q44 -18 89 -18q37 0 73.5 13t48 21t18.5 13l8 8h67l8 -6q65 -47 135 -47q46 0 82.5 17.5t43.5 30.5l4 9q-2 8 -7 16l-5 6l-1 8q-3 26 -29 27l-68 3l47 48q7 8 28.5 48t30.5 64l25 65l30 -63q14 -29 26 -46
q8 23 5.5 49.5t-6.5 48t-14 44t-18 38.5t-17.5 30.5t-13.5 20t-6 7.5l-9 11l3 15q6 18 3.5 35.5t-4.5 27.5t-8.5 19t-8.5 12t-4 4l-11 9v14q-2 59 -20.5 108.5t-46 81t-62 53.5t-67.5 31.5t-64 9.5q-10 0 -20 -1q-226 -11 -264 -279q-5 -30 -20 -37q-9 -8 -9 -21l3 -16
l-11 -11q-5 -8 -2.5 -19t6.5 -20l12 -22l-19 -16q-48 -41 -69 -113t-15 -118q17 17 32 45l35 66l20 -72q16 -54 58 -103l34 -35l-47 -14q-12 -4 -21.5 -9.5t-13 -9.5t-3.5 -6l5 -17z" />
    <glyph glyph-name="pingjia5xing" unicode="&#xe62b;" horiz-adv-x="4876" 
d="M799 414l-150 -130q-15 -15 -12 -36l36 -209q4 -25 -14 -38q-11 -9 -25 -9q-11 0 -20 6l-189 103q-19 10 -38 0l-181 -103q-24 -13 -46 3q-24 18 -21 38l43 213q4 21 -11 36l-158 125q-19 20 -11 46t35 30l205 36q21 3 30 22l95 202q12 25 39 25t39 -25l91 -202
q9 -19 30 -22l209 -36q26 -4 34.5 -30t-10.5 -45v0v0zM1815 414l-150 -130q-15 -15 -12 -36l36 -209q4 -25 -14 -38q-11 -9 -25 -9q-11 0 -21 6l-189 103q-18 10 -37 0l-181 -103q-24 -13 -46 3q-24 18 -21 38l43 213q4 21 -11 36l-158 125q-19 20 -11 46t35 30l205 36
q21 3 30 22l95 202q12 25 39 25t39 -25l91 -202q9 -19 30 -22l208 -36q27 -4 35.5 -30t-10.5 -45v0v0zM2830 414l-149 -130q-15 -15 -12 -36l36 -209q4 -25 -14 -38q-11 -9 -25 -9q-11 0 -21 6l-189 103q-18 10 -37 0l-181 -103q-24 -13 -46 3q-25 18 -21 38l43 213
q4 21 -11 36l-158 126q-19 19 -11 45t35 30l205 36q21 3 30 22l95 202q12 25 39 25t39 -25l90 -202q10 -19 31 -22l208 -36q27 -4 35.5 -30t-11.5 -45v0v0zM3846 414l-149 -130q-15 -15 -12 -36l35 -209q5 -25 -13 -38q-11 -9 -26 -9q-10 0 -20 6l-189 103q-18 10 -37 0
l-181 -103q-24 -13 -46 3q-25 18 -21 38l43 213q4 21 -12 36l-157 125q-20 20 -11.5 46t35.5 30l205 36q21 3 30 22l95 202q11 25 38.5 25t39.5 -25l90 -202q10 -19 30 -22l209 -36q27 -4 35.5 -30t-11.5 -45v0v0zM4862 414l-150 -130q-15 -15 -11 -36l35 -209
q5 -25 -13 -38q-11 -9 -26 -9q-10 0 -20 6l-189 103q-19 10 -37 0l-181 -103q-24 -13 -46 3q-25 18 -21 38l43 213q3 21 -12 36l-157 125q-20 20 -11.5 46t35.5 30l205 36q21 3 30 22l94 202q12 25 39 25t39 -25l91 -202q10 -19 30 -22l209 -36q27 -4 35.5 -30t-11.5 -45v0
v0z" />
    <glyph glyph-name="tianjiaweixinkefu" unicode="&#xe762;" 
d="M489 551q14 0 23 9t9 23.5t-9 23.5t-23 9q-16 0 -28 -9t-11.5 -23.5t12 -23.5t27.5 -9v0v0zM307 616q-16 0 -27.5 -9t-11.5 -23.5t11.5 -23.5t27.5 -9q14 0 23 9t9 23.5t-9 23.5t-23 9v0v0zM877 343q0 77 -62 135t-150 64v4q-18 82 -96 137t-178 55q-112 0 -191.5 -68
t-79.5 -165q0 -105 101 -179l-23 -70q-2 -8 4 -13q3 -3 7 -3q3 0 6 1l87 44l11 -2q50 -10 78 -10q7 0 19.5 1.5t14.5 3.5q24 -60 84 -97.5t136 -37.5q27 0 76 12l67 -37q3 -1 6 -1q4 0 7 2q6 5 4 13l-17 57q89 70 89 154v0v0zM414 304q-11 -1 -23 -1q-25 0 -71 10l-14 3
q-4 0 -8 -1l-63 -32l17 49q2 8 -5 13q-95 67 -95 160q0 83 70 142.5t169 59.5q88 0 156.5 -47.5t84.5 -118.5q-91 -1 -156 -57.5t-65 -135.5q0 -21 6 -44h-3v0v0zM761 209q-6 -4 -4 -12l11 -35l-44 24q-2 1 -5 1h-3q-48 -12 -71 -12q-83 0 -141 49t-58 118.5t58 119
t141 49.5q80 0 139 -50t59 -118q0 -72 -82 -134v0v0zM573 427q-10 0 -18 -8t-8 -17.5t8 -18t18 -8.5q14 0 23 8t9 18.5t-9 18t-23 7.5v0v0zM716 427q-10 0 -18 -8t-8 -17.5t8 -18t18 -8.5q14 0 23 8t9 18.5t-9 18t-23 7.5v0v0z" />
    <glyph glyph-name="zhongbiaoshoushi" unicode="&#xe608;" 
d="M515 831q-91 0 -174 -35.5t-143 -95.5t-95.5 -143t-35.5 -173.5t35.5 -173.5t95.5 -143t143 -95.5t174 -35.5v20v-20q91 0 174 35.5t143 95.5t95.5 143t35.5 173.5t-35.5 173.5t-95.5 143t-143 95.5t-174 35.5v0zM515 -23q-111 0 -204.5 54.5t-148 148t-54.5 204
t54.5 204t148 148t204 54.5t204.5 -54.5t148.5 -148t54.5 -204t-54.5 -204t-148.5 -148t-204 -54.5v0zM516 701q-86 0 -159.5 -42.5t-116 -115.5t-42.5 -159.5t42.5 -159.5t116 -115.5t159.5 -42.5t159.5 42.5t116 115.5t42.5 159.5t-42.5 159.5t-116 115.5t-159.5 42.5v0z
M516 107q-115 0 -196 81t-81 195.5t81 195.5t195.5 81t196 -81t81.5 -195.5t-81.5 -195.5t-195.5 -81v0zM658 539l-132 -122q-8 2 -15 2q-10 0 -20 -5l-88 77q-6 6 -14.5 5.5t-14 -7t-5 -15t6.5 -14.5l90 -78q-1 -5 -1 -8q0 -20 13.5 -33t32.5 -13t32 13q19 19 11 46
l132 122q6 5 6 13.5t-5.5 15t-14 7t-14.5 -5.5v0zM514 370q-3 -3 -6 0q-2 2 -2 3.5t2 3.5q1 1 3 1t3 -1q3 -3 0 -7v0z" />
    <glyph glyph-name="xing" unicode="&#xe501;" 
d="M974 495q-5 17 -19 29t-32 14l-245 36l-109 222q-17 36 -57 36v0q-40 0 -58 -36l-109 -222l-244 -36q-18 -2 -32 -14t-20 -29q-12 -38 16 -66l177 -173l-42 -244q-7 -39 25.5 -62.5t67.5 -5.5l219 115l218 -115q14 -7 30 -7q21 0 38 12q32 24 25 63l-42 244l177 173
q29 28 16 66z" />
    <glyph glyph-name="gerenhuli1" unicode="&#xe64f;" 
d="M522 611v42q0 13 -9 22t-22 9h-248q-13 0 -22 -9t-9 -22v-45l45 -401q1 -11 12 -20q0 -1 -0.5 -2l-0.5 -1v-52q0 -12 8.5 -20t20.5 -8h140q12 0 20.5 8t8.5 20v52q0 2 -1 3q11 8 12 20l45 401v3zM402 606v46h29v-46h-29zM383 606h-29v46h29v-46zM335 606h-29v46h29v-46z
M490 612v-6h-39v46h39v-40zM243 652h43v-46h-42l-1 5v41zM433 136h-133v44h133v-44zM445 213h-158l-41 374h241zM432 532h-130q-8 0 -14 -5.5t-6 -12.5v-90q0 -7 6 -12.5t14 -5.5h130q8 0 14 5.5t6 12.5v90q-1 8 -6.5 13t-13.5 5zM432 426h-131v0v87h131v-87zM700 419h-10
v86q0 18 -14 29l-80 61q-13 10 -30 3q-19 -10 -19 -32v-147h-2q-12 0 -20.5 -8.5t-8.5 -20.5v-256q0 -12 8.5 -20t20.5 -8h155q12 0 20 8t8 20v256q1 12 -7.5 20.5t-20.5 8.5zM697 367h-149v20h150v-20h-1zM580 422v142v2l77 -58q1 0 1 -4v-82l-0.5 -1.5l-0.5 -1.5h-77v1.5
v1.5zM549 138v210h149v-210h-149z" />
    <glyph glyph-name="shebei1" unicode="&#xe81a;" 
d="M993 544q-32 75 -82 130t-123 89q-71 31 -153 31q-79 0 -150 -31q-69 -30 -123 -89q-59 -64 -82 -130q-4 -7 -9 -23.5t-8 -23.5h232q24 34 60.5 54.5t79.5 20.5q74 0 125.5 -55.5t51.5 -132.5t-51.5 -132.5t-125.5 -55.5h-635q0 -31 20.5 -53t51.5 -22h266q3 -5 11.5 -15
t12.5 -16q34 -38 95 -75v-41h352v45q53 28 99 75q59 64 82 130q31 76 31 160q0 92 -28 160zM860 148q-94 -99 -225 -99q-112 0 -198 76h198q49 0 95 19.5t79 55.5q72 71 72 184q0 51 -19.5 99.5t-52.5 84.5q-75 75 -174 75t-174 -75h-86q16 26 38 48q94 99 225.5 99
t225.5 -99q92 -97 92 -235q0 -137 -96 -233zM741 292h-686q-23 0 -39 -16t-16 -39h689q21 0 36.5 16t15.5 39zM563 384q0 -31 20.5 -53t51.5 -22q28 0 50 22.5t22 52.5q0 31 -21 53t-51 22q-29 0 -50.5 -22.5t-21.5 -52.5zM563 309q0 61 -41.5 105.5t-98.5 44.5h-184
l-198 -31q-18 -2 -29.5 -15.5t-11.5 -31.5v-65z" />
    <glyph glyph-name="bailing" unicode="&#xe61e;" 
d="M508.5 348q-108.5 0 -185.5 76.5t-77 185t77 185.5t185.5 77t185.5 -77t77 -185.5t-77 -185t-185.5 -76.5zM329 582q5 -70 56.5 -118.5t122.5 -48.5q68 0 119 45t59 111q-45 2 -83 11.5t-61 20t-44.5 28.5t-31 29t-23.5 30l-1 1q-48 -65 -113 -109zM508 825
q-88 0 -151 -62t-64 -150l1 1q7 5 22 15.5t48.5 43t56.5 69.5l16 24l20 -20q8 -8 23 -28q13 -18 21.5 -27.5t28.5 -25.5t42 -25t58.5 -16t80.5 -7h13q-3 87 -65.5 147.5t-150.5 60.5zM508 -98l-109 407l109 82l110 -110zM450 267l58 -234l59 234l-59 58zM807 -102h-320
l122 392l-72 72h210q59 0 101 -42t42 -101v-238q0 -35 -24.5 -59t-58.5 -24zM570 -56h237q15 0 26 10.5t11 26.5v238q0 40 -28.5 68.5t-68.5 28.5h-98l11 -11l-90 -361v0zM530 -102h-320q-35 0 -59 24t-24 59v238q0 59 41.5 101t100.5 42h211l-75 -69zM269 316
q-39 0 -67.5 -28.5t-28.5 -68.5v-238q0 -16 10.5 -26.5t26.5 -10.5h237l-90 361l11 11h-99z" />
    <glyph glyph-name="shuxian" unicode="&#xe6a9;" 
d="M495 735h35v-702h-35v702z" />
    <glyph glyph-name="shebei2" unicode="&#xe621;" 
d="M616 65h-97v112h25q-13 30 -20 56h-364q-33 0 -33 19v19h390q-1 0 -1 18q0 6 3 37h-392v348q0 7 11 19q8 8 22 8h603q6 0 12 -7t6 -20v-162q25 -5 57 -18v180q0 29 -19 56t-45 27h-614q-34 0 -60 -25q-29 -29 -29 -58v-423q0 -34 21.5 -54t67.5 -20h210v-112h-60
q-10 0 -19 -8q-7 -8 -7 -19q0 -13 7 -20q10 -9 19 -9h306q9 0 19 9q7 7 7 19t-7 19q-10 9 -19 9zM483 65h-57v112h57v-112zM744 214q-29 0 -49.5 20.5t-20.5 49.5t20.5 49.5t49.5 20.5t49.5 -20.5t20.5 -49.5t-20.5 -49.5t-49.5 -20.5zM744.5 317q-13.5 0 -23 -10
t-9.5 -23.5t9.5 -23t23 -9.5t23 9.5t9.5 23t-9.5 23.5t-23 10zM744 84q-27 0 -39 12q-16 16 -17 37q-11 4 -13 5q-17 -16 -38 -16h-1q-23 0 -39 15q-16 16 -16.5 39t15.5 39q-3 7 -5 14q-22 0 -38 16q-17 16 -17 39t16 39t39 17l6 14q-15 16 -15 38q-1 23 15.5 39.5
t39.5 16.5t39 -16q6 3 13 5q0 23 16.5 39t39 16t38.5 -16t17 -39q7 -2 14 -6q16 16 38.5 16t38.5 -16t16.5 -39t-15.5 -39l6 -14q22 0 38 -16t16 -38q0 -23 -16 -39.5t-38 -17.5l-6 -14q15 -16 15 -38q0 -23 -16 -39t-39 -16.5t-39 15.5q-2 -1 -6.5 -1t-7.5 -1
q0 -22 -16 -36t-39 -14v0zM669 179q5 0 10 -3q16 -10 35 -14q8 -2 12 -9q2 -5 2 -9t-1 -7t-1 -6q0 -7 5.5 -12.5t12.5 -5.5t12.5 5.5t5.5 13.5q0 2 -1 5t-1 6q0 5 2 9q4 8 12 10q19 4 35 14q4 3 10 3q2 0 5 -1q8 -2 12 -10q1 -3 3 -5q5 -5 12.5 -5t13 5t5.5 13v0q0 7 -6 13
q-1 1 -5 3q-7 4 -9 12q-1 2 -1 5q0 5 3 10q10 16 14 35q2 8 10 12q4 2 8 2t7 -1t6 -1q7 0 12.5 5.5t5.5 12.5v0q0 7 -5.5 12.5t-13.5 5.5q-4 -1 -5 -1q-8 -3 -15.5 1t-9.5 12q-4 18 -14 35q-3 4 -3 9q0 3 1 6q2 8 10 11q3 2 5 4q5 5 5 13v0q0 7 -5.5 12.5t-13 5.5t-12.5 -6
q-2 -2 -3 -5q-4 -7 -12 -10h-5q-5 0 -10 2q-16 10 -35 15q-8 2 -12 9q-2 4 -2 9q0 3 1 6q1 4 1 6q0 8 -5 13t-12.5 5t-13 -5t-5.5 -13q0 -2 1 -6q1 -3 1 -6q0 -5 -2 -9q-4 -7 -12 -9q-18 -5 -34 -14q-5 -3 -10 -3q-3 0 -5 1q-8 2 -12 10q-1 3 -3 5q-6 5 -13.5 5t-12.5 -5
t-5 -13v0q0 -7 5 -13q2 -1 5 -3q8 -3 10 -11t-2 -16q-10 -16 -15 -35q-2 -8 -9 -12q-4 -2 -9 -2q-3 0 -6 1q-4 2 -6 1q-8 0 -13 -5t-5 -12.5t5 -13t13 -5.5v0q2 0 6 1q8 3 15 -1t9 -12q5 -18 14 -35q3 -4 3 -10q0 -2 -1 -5q-2 -8 -10 -11q-3 -2 -5 -4q-5 -5 -5 -13v0
q0 -7 5 -13q7 -6 13 -5q8 0 13 6q2 1 3 5q4 7 12 9q2 1 5 1z" />
    <glyph glyph-name="xing1" unicode="&#xe70e;" 
d="M550 115q-6 7 -25 7t-26 -7l-179 -96q-24 -13 -37 -3t-8 35l32 199q0 32 -19 51l-147 141q-20 19 -14.5 35t33.5 16l198 32q14 0 27 10.5t18 21.5l90 179q5 10 13 18t12 8q6 0 14 -6.5t12 -19.5l90 -179q5 -11 18 -21.5t26 -10.5l199 -32q28 -5 33.5 -21t-14.5 -30
l-147 -141q-9 -9 -14 -24.5t-5 -26.5l32 -199q5 -25 -8 -35t-37 3zM525 122q-19 0 -26 -7l-179 -96q-24 -13 -37 -3t-8 35l32 199q0 32 -19 51l-147 141q-20 19 -14.5 35t33.5 16l198 32q14 0 27 10.5t18 21.5l90 179q5 10 13 18t12 8z" />
    <glyph glyph-name="dier" unicode="&#xe711;" 
d="M512 753q-113 0 -193 -80t-80 -192.5t80 -192.5t193 -80t193 80t80 192.5t-80 192.5t-193 80zM639 317h-254v56q33 26 58.5 48.5t44.5 42.5q25 27 36.5 47t11.5 42q0 24 -14.5 36.5t-39.5 12.5q-14 0 -25 -3q-12 -3 -24 -8q-12 -6 -20 -11l-13 -8h-6v75q14 7 45 14t60 7
q61 0 93 -27t32 -77q0 -30 -14.5 -59.5t-47.5 -62.5q-21 -21 -41 -37t-28 -23h146v-65v0zM928 480q0 113 -56 209t-151.5 151.5t-208.5 55.5t-208.5 -55.5t-151.5 -151.5t-56 -209q0 -92 38 -173.5t105 -139.5v-2v-261v0q0 -16 13 -26q9 -6 19 -6q5 0 10 2l231 78l231 -78
q5 -2 10 -2v0q10 0 19 6q13 10 13 26v0v261v2q67 58 105 139.5t38 173.5zM165 480.5q0 94.5 46.5 174.5t126.5 126.5t174 46.5t174 -46.5t126.5 -126.5t46.5 -174.5t-46.5 -174.5t-126.5 -126.5t-174 -46.5t-174 46.5t-126.5 126.5t-46.5 174.5zM721 -51l-199 67q-5 2 -10 2
t-10 -2l-199 -67v172q97 -56 209 -56t209 56v-172z" />
    <glyph glyph-name="diyi" unicode="&#xe712;" 
d="M928 480q0 113 -56 209t-151.5 151.5t-208.5 55.5t-208.5 -55.5t-151.5 -151.5t-56 -209q0 -92 38 -173.5t105 -139.5v-2v-261v0q0 -16 13 -26q9 -6 19 -6q5 0 10 2l231 78l231 -78q5 -2 10 -2v0q10 0 19 6q13 10 13 26v0v261v2q67 58 105 139.5t38 173.5zM165 480.5
q0 94.5 46.5 174.5t126.5 126.5t174 46.5t174 -46.5t126.5 -126.5t46.5 -174.5t-46.5 -174.5t-126.5 -126.5t-174 -46.5t-174 46.5t-126.5 126.5t-46.5 174.5zM721 -51l-199 67q-5 2 -10 2t-10 -2l-199 -67v172q97 -56 209 -56t209 56v-172zM512 753q-113 0 -193 -80
t-80 -192.5t80 -192.5t193 -80t193 80t80 192.5t-80 192.5t-193 80zM623 317h-222v59h71v176h-71v55q16 0 31 2t25 7t16 14t7 23h74v-277h69v-59z" />
    <glyph glyph-name="disan" unicode="&#xe713;" 
d="M512 753q-113 0 -193 -80t-80 -192.5t80 -192.5t193 -80t193 80t80 192.5t-80 192.5t-193 80zM626.5 370.5q-8.5 -19.5 -26.5 -33.5q-17 -14 -40 -21.5t-57 -7.5q-38 0 -65.5 6.5t-44.5 14.5v71h8q18 -12 42.5 -20t43.5 -8q12 0 26 2t24 9q7 5 11.5 13t4.5 22.5
t-6.5 22.5t-16.5 11q-11 4 -25.5 4.5t-25.5 0.5h-14v57h13q15 0 27 1.5t21 5.5t14 11.5t5 20.5q0 10 -4.5 16t-11.5 9q-8 4 -18.5 5.5t-17.5 1.5q-13 0 -25 -3t-24 -7q-9 -4 -20 -9q-9 -6 -14 -9h-7v70q17 8 45.5 14.5t57.5 6.5h1q29 0 50 -5t36 -15q17 -10 25.5 -26
t8.5 -36q0 -28 -16 -48.5t-43 -27.5v-3q12 -1 23 -5.5t21 -13.5t16.5 -22.5t6.5 -31.5q0 -24 -8.5 -43.5zM928 480q0 113 -56 209t-151.5 151.5t-208.5 55.5t-208.5 -55.5t-151.5 -151.5t-56 -209q0 -92 38 -173.5t105 -139.5v-2v-261v0q0 -16 13 -26q9 -6 19 -6q5 0 10 2
l231 78l231 -78q5 -2 10 -2v0q10 0 19 6q13 10 13 26v0v261v2q67 58 105 139.5t38 173.5zM165 480.5q0 94.5 46.5 174.5t126.5 126.5t174 46.5t174 -46.5t126.5 -126.5t46.5 -174.5t-46.5 -174.5t-126.5 -126.5t-174 -46.5t-174 46.5t-126.5 126.5t-46.5 174.5zM721 -51
l-199 67q-5 2 -10 2t-10 -2l-199 -67v172q97 -56 209 -56t209 56v-172z" />
    <glyph glyph-name="yanjing4" unicode="&#xe644;" 
d="M222.5 52q-90.5 0 -155 64.5t-64.5 155t64.5 155t155 64.5t155 -64.5t64.5 -155t-64.5 -155t-155 -64.5zM222.5 446q-72.5 0 -123.5 -51t-51 -123.5t51 -124t123.5 -51.5t124 51.5t51.5 124t-51.5 123.5t-124 51zM798 52q-91 0 -155 64.5t-64 155t64 155t155 64.5
t155 -64.5t64 -155t-64 -155t-155 -64.5zM798 446q-72 0 -123.5 -51t-51.5 -123.5t51.5 -124t123.5 -51.5t123.5 51.5t51.5 124t-51.5 123.5t-123.5 51zM45 339q-3 0 -7 1q-8 3 -12.5 11.5t-1.5 16.5l111 326q10 40 53 58q40 18 86 7q9 -2 14 -10t3 -17t-10 -14t-17 -3
q-32 8 -58 -3q-23 -10 -28 -29v-2l-112 -327q-5 -15 -21 -15zM974 339q-16 0 -21 15l-112 329q-5 19 -28 29q-26 11 -58 3q-9 -2 -17 3t-10 14t3 17t14 10q46 11 86 -7q43 -18 53 -58l111 -326q3 -8 -1.5 -16.5t-12.5 -11.5q-4 -1 -7 -1zM601 249q-6 0 -10 3q-34 16 -83 16
q-48 0 -77 -16q-8 -4 -17 -2t-13.5 10t-2 17t10.5 14q38 21 99 21t103 -21q8 -4 11 -13t-1 -17q-7 -12 -20 -12z" />
    <glyph glyph-name="sousuo_sousuo" unicode="&#xe67a;" horiz-adv-x="1025" 
d="M976 -128q-8 0 -16 3q-8 2 -14 7l-6 5l-298 292l-4 -4q-104 -71 -233 -71q-9 0 -26 1q-9 0 -26 3q-92 11 -167 60q-83 51 -131 135q-23 39 -37 83q-13 45 -16 90q-3 44 5 91q12 74 52 138q39 63 101 108q51 40 115 62q63 21 131 21q30 0 54 -4q68 -9 132 -41t110 -81
q55 -57 84 -132q28 -78 25 -155q-5 -131 -93 -235l-4 -5l296 -289v-5h4q11 -14 11 -29q0 -19 -14 -33t-34 -14zM365 845q-5 0 -11 -1l-7 -1q-79 -12 -144 -57q-65 -42 -105 -110q-44 -71 -49 -160q-4 -89 33 -164q32 -69 92 -118.5t134 -69.5q49 -14 97 -14q31 0 60 6
q40 6 80 23q38 16 72 41q32 23 61 55q28 33 46 68q34 64 37 140q4 74 -24 141q-17 44 -43 78q-27 36 -62 66q-37 29 -77 47q-70 32 -149 32q-20 1 -41 -2z" />
    <glyph glyph-name="mz" unicode="&#xe622;" 
d="M145 497q1 3 1 4q3 12 12.5 20.5t21.5 10.5h9h22q1 3 1 5v3v330v9q4 15 20 15v0q116 -1 193 -85q54 -60 62 -141l1 -28v-54v-53h3q21 0 24 -1q24 0 35 -21q5 -9 5 -19v-1v-92v-484v-2q0 -14 -9 -25q-11 -14 -29 -15l-1 -1h-5h-323h-2q-14 0 -26 9q-13 11 -15 27v-1v590z
M187 369v-455h326v455h-326zM254 533h192v108v14q-1 28 -10 54q-27 85 -115 126q-36 17 -78 18l11 -1v-319zM513 491q-4 1 -164 1t-162 -1v-81h326v81zM923 102v-54v-63.5v-54.5v-1q0 -18 -11 -32q-16 -23 -43 -24q-2 -1 -8 -1h-198q-25 0 -42 18q-16 16 -17 39v1v1v342
q0 20 11 35q16 23 44 24h7h197q23 0 39 -13t20 -34q1 -4 1 -11v-172zM881 102v170v1v3q0 11 -11 14q-3 1 -7 1h-1h-197h-4q-12 -1 -14 -13q-1 -1 -1 -5v-344q1 -12 11 -15q4 -1 8 -1h1h196h4q6 1 10.5 5t4.5 10v2v2v170z" />
    <glyph glyph-name="gehu-yinxingyanjing" unicode="&#xe664;" 
d="M510 746q-98 0 -181 -48t-131.5 -131t-48.5 -181t48.5 -181t131.5 -131.5t181 -48.5t181 48.5t131 131.5t48 181t-48 181t-131 131t-181 48zM805 216v0q-17 -29 -71 -30t-123 25q-13 -74 -40.5 -120t-60.5 -46v0q-34 0 -61 46t-40 120q-70 -26 -124 -25t-70 30v0
q-17 29 9 75.5t84 94.5q-58 48 -84 95t-9 75v0q16 29 70 30t124 -25q13 74 40.5 120t60.5 46v0q33 0 60.5 -46t40.5 -120q69 26 123 25t71 -30v0q17 -29 -9 -75.5t-84 -94.5q58 -49 83.5 -95.5t9.5 -74.5z" />
    <glyph glyph-name="icon_dierming" unicode="&#xe625;" 
d="M927 466l-185 -72l-202 333q23 12 23 41q0 21 -15 36t-36 15t-36 -15t-15 -36q0 -15 8.5 -27.5t22.5 -18.5l-190 -328l-202 74q0 3 1 8.5t1 9.5q0 22 -15 37t-36 15t-36 -15t-15 -36.5t15 -36.5t36 -15q8 0 13 3l123 -484h668l108 481h10q21 0 36 15t15 36.5t-15 36.5
t-36 15t-36 -15t-15 -37q0 -10 5 -20z" />
    <glyph glyph-name="icon_disanming" unicode="&#xe638;" 
d="M927 466l-185 -72l-202 333q23 12 23 41q0 21 -15 36t-36 15t-36 -15t-15 -36q0 -15 8.5 -27.5t22.5 -18.5l-190 -328l-202 74q0 3 1 8.5t1 9.5q0 22 -15 37t-36 15t-36 -15t-15 -36.5t15 -36.5t36 -15q8 0 13 3l123 -484h668l108 481h10q21 0 36 15t15 36.5t-15 36.5
t-36 15t-36 -15t-15 -37q0 -10 5 -20z" />
    <glyph glyph-name="icon_diyiming" unicode="&#xe6a8;" 
d="M927 466l-185 -72l-202 333q23 12 23 41q0 21 -15 36t-36 15t-36 -15t-15 -36q0 -15 8.5 -27.5t22.5 -18.5l-190 -328l-202 74q0 3 1 8.5t1 9.5q0 22 -15 37t-36 15t-36 -15t-15 -36.5t15 -36.5t36 -15q8 0 13 3l123 -484h668l108 481h10q21 0 36 15t15 36.5t-15 36.5
t-36 15t-36 -15t-15 -37q0 -10 5 -20z" />
    <glyph glyph-name="kefu2" unicode="&#xe624;" horiz-adv-x="1280" 
d="M1042 200q-8 277 -8 299q-50 113 -155 182t-232 69t-232 -69t-155 -182q0 -28 -1 -102.5t-2 -136t-1 -60.5q-60 0 -97 43.5t-37 107.5q0 41 21 76t56 55q49 140 171.5 229t276.5 89t276.5 -89t172.5 -229q35 -21 55.5 -55.5t20.5 -75.5q0 -65 -35 -108t-95 -43v0z
M331 102q20 44 12 63q-32 68 -32 144q0 70 27 133q25 61 71.5 109t106.5 74q62 26 130 26t131 -26q60 -27 106 -74q46 -48 72 -108q26 -64 26 -133.5t-26 -132.5q-26 -62 -72 -109t-106 -73q-63 -27 -130 -27q-94 0 -172 48l-1 1v0q-4 2 -9 -1q-55 -25 -113 -25
q-34 0 -65 10l-41 13l36 22q29 18 49 66v0zM352 31q26 0 55 7t39.5 12.5t15.5 8t10.5 2.5t9.5 -4q74 -50 165 -50q79 0 148 40.5t108 110t39 151.5t-39 151.5t-108 110.5t-149 41t-148.5 -41t-108 -110.5t-39.5 -151.5q0 -67 28 -128q15 -35 -11 -95q-14 -31 -33 -55h18v0z
M508 356q19 0 32.5 -13.5t13.5 -33t-13.5 -33.5t-32.5 -14t-32.5 14t-13.5 33.5t13.5 33t32.5 13.5zM656 356q19 0 32.5 -13.5t13.5 -33t-13.5 -33.5t-32.5 -14t-32.5 14t-13.5 33.5t13.5 33t32.5 13.5zM803 356q19 0 33 -13.5t14 -33t-14 -33.5t-33 -14t-32.5 14
t-13.5 33.5t13.5 33t32.5 13.5z" />
    <glyph glyph-name="search" unicode="&#xe502;" 
d="M873 77v0v0v0q10 -12 10 -26q0 -15 -11 -27q-11 -11 -27 -11v0q-7 0 -13 2q-9 3 -16 11v-1l-204 206q-74 -52 -165 -52q-9 0 -19 1q-18 1 -35 6q-56 3 -117 51q-41 24 -77 87q-29 49 -35 109l-1 -1q-2 16 -2 32q0 4 0 3q0 25 5 50q10 67 52 122q10 20 40 44.5t66 40.5
l-10 -3q10 7 41 18q43 16 92 16v0q20 0 38 -3q49 -6 94 -29q73 -39 113 -109l-2 7q11 -12 26 -54q20 -56 18 -113q-4 -95 -66 -171l206 -206h-1v0zM691 455v13q0 46 -18 88q-19 53 -61 91q-8 7 0 -1q-5 5 -10 9q-47 40 -108 52q-15 3 0 1q-24 3 -45 3q-15 0 -30 -2
q-2 0 -6 -1h-5q-66 -11 -116 -53q-19 -12 -39.5 -41t-32.5 -64q-1 3 -3 -3q-10 -24 -12 -69q-3 -62 23 -115q31 -69 97 -106q0 -3 12 -9.5t34 -13t44 -9.5q1 -2 11.5 -2.5t28 0t33.5 3.5q46 8 84 31q7 2 27 18.5t37 37.5l-1 -4q12 11 33 53q2 3 3 7l-14 -26q4 7 8 15v0
q25 48 26 104v-7z" />
    <glyph glyph-name="disanming2" unicode="&#xe633;" 
d="M866 200h-706v379q0 8 10 18q1 0 4.5 1t5.5 1q8 0 10 -4l99 -66q12 -9 26 2l185 183q6 6 14 6t14 -6l183 -183q4 -4 12 -5t14 3l101 66q7 4 12.5 3t7.5 -3q10 -5 10 -18v-377h-2zM874 632q-34 17 -63 -2l-86 -58l-170 170q-18 19 -43.5 19t-42.5 -19l-172 -170l-82 58
q-31 20 -63.5 3.5t-32.5 -52.5v-381q0 -17 12 -29t29 -12h706q17 0 29 12t12 29v379q0 36 -33 53zM866 200h-706v379q0 8 10 18q1 0 4.5 1t5.5 1q8 0 10 -4l99 -66q12 -9 26 2l185 183q6 6 14 6t14 -6l183 -183q4 -4 12 -5t14 3l101 66q7 4 12.5 3t7.5 -3q10 -5 10 -18v-377
h-2zM885 48h-748q-9 0 -14.5 -5.5t-5.5 -15t5.5 -15t14.5 -5.5h748q9 0 14.5 5.5t5.5 15t-5.5 15t-14.5 5.5zM299 200h428v327q-12 0 -16 7l-183 182q-6 6 -14 6t-14 -6l-185 -182q-6 -7 -16 -7v-327z" />
    <glyph glyph-name="dierming2" unicode="&#xe634;" 
d="M866 200h-706v379q0 8 10 18q1 0 4.5 1t5.5 1q8 0 10 -4l99 -66q12 -9 26 2l185 183q6 6 14 6t14 -6l183 -183q4 -4 12 -5t14 3l101 66q7 4 12.5 3t7.5 -3q10 -5 10 -18v-377h-2zM874 632q-34 17 -63 -2l-86 -58l-170 170q-18 19 -43.5 19t-42.5 -19l-172 -170l-82 58
q-31 20 -63.5 3.5t-32.5 -52.5v-381q0 -17 12 -29t29 -12h706q17 0 29 12t12 29v379q0 36 -33 53zM866 200h-706v379q0 8 10 18q1 0 4.5 1t5.5 1q8 0 10 -4l99 -66q12 -9 26 2l185 183q6 6 14 6t14 -6l183 -183q4 -4 12 -5t14 3l101 66q7 4 12.5 3t7.5 -3q10 -5 10 -18v-377
h-2zM885 48h-748q-9 0 -14.5 -5.5t-5.5 -15t5.5 -15t14.5 -5.5h748q9 0 14.5 5.5t5.5 15t-5.5 15t-14.5 5.5zM711 531l-183 183q-6 6 -14 6t-14 -6l-185 -183q-6 -6 -16 -6v-327h428v327q-10 0 -16 6z" />
    <glyph glyph-name="diyiming2" unicode="&#xe635;" 
d="M866 200h-706v379q0 8 10 18q1 0 4.5 1t5.5 1q8 0 10 -4l99 -66q12 -9 26 2l185 183q6 6 14 6t14 -6l183 -183q4 -4 12 -5t14 3l101 66q7 4 12.5 3t7.5 -3q10 -5 10 -18v-377h-2zM874 632q-34 17 -63 -2l-86 -58l-170 170q-18 19 -43.5 19t-42.5 -19l-172 -170l-82 58
q-31 20 -63.5 3.5t-32.5 -52.5v-381q0 -17 12 -29t29 -12h706q17 0 29 12t12 29v379q0 36 -33 53zM866 200h-706v379q0 8 10 18q1 0 4.5 1t5.5 1q8 0 10 -4l99 -66q12 -9 26 2l185 183q6 6 14 6t14 -6l183 -183q4 -4 12 -5t14 3l101 66q7 4 12.5 3t7.5 -3q10 -5 10 -18v-377
h-2zM885 48h-748q-9 0 -14.5 -5.5t-5.5 -15t5.5 -15t14.5 -5.5h748q9 0 14.5 5.5t5.5 15t-5.5 15t-14.5 5.5zM727 572l-2 2zM299 200h428v327q-12 0 -16 7l-183 182q-6 6 -14 6t-14 -6l-185 -182q-6 -7 -16 -7v-327z" />
    <glyph glyph-name="sou" unicode="&#xe505;" 
d="M873 77v0v0v0q10 -12 10 -26q0 -15 -11 -27q-11 -11 -27 -11v0q-7 0 -13 2q-9 3 -16 11v-1l-204 206q-74 -52 -165 -52q-9 0 -19 1q-18 1 -35 6q-56 3 -117 51q-41 24 -77 87q-29 49 -35 109l-1 -1q-2 16 -2 32q0 4 0 3q0 25 5 50q10 67 52 122q10 20 40 44.5t66 40.5
l-10 -3q10 7 41 18q43 16 92 16v0q20 0 38 -3q49 -6 94 -29q73 -39 113 -109l-2 7q11 -12 26 -54q20 -56 18 -113q-4 -95 -66 -171l206 -206h-1v0zM691 455v13q0 46 -18 88q-19 53 -61 91q-8 7 0 -1q-5 5 -10 9q-47 40 -108 52q-15 3 0 1q-24 3 -45 3q-15 0 -30 -2
q-2 0 -6 -1h-5q-66 -11 -116 -53q-19 -12 -39.5 -41t-32.5 -64q-1 3 -3 -3q-10 -24 -12 -69q-3 -62 23 -115q31 -69 97 -106q0 -3 12 -9.5t34 -13t44 -9.5q1 -2 11.5 -2.5t28 0t33.5 3.5q46 8 84 31q7 2 27 18.5t37 37.5l-1 -4q12 11 33 53q2 3 3 7l-14 -26q4 7 8 15v0
q25 48 26 104v-7z" />
    <glyph glyph-name="tubiao-" unicode="&#xe6b2;" 
d="M999 422q-3 0 -6 -1q-5 46 -30.5 80t-62.5 52t-73 26t-72 9h-3v0l-474 -1q-2 0 -4.5 0.5t-3.5 0.5q-36 0 -72.5 -8.5t-74 -26t-63.5 -52t-31 -80.5q-2 1 -5 1q-10 -1 -17 -8t-7 -17v0q0 -10 7 -17.5t17 -7.5h1h3q8 -93 69.5 -142.5t143.5 -49.5q54 0 112 35.5t97 95
t39 122.5v6q9 23 22 23t22 -22q-1 -6 -1 -7q0 -63 39.5 -122.5t97.5 -95t112 -35.5q82 0 143 49.5t69 143.5q4 -1 6 -1h1q10 0 17 7.5t7 17.5t-7.5 17t-17.5 8zM165 419q-17 -9 -38.5 -2t-32.5 32q-7 17 1.5 33t18 22t19.5 11v0l7 2q47 18 59 -12q10 -22 -2.5 -49.5
t-31.5 -36.5zM662 419q-17 -9 -38.5 -2t-31.5 32q-7 17 1.5 33t18 22t18.5 11h1l6 2q47 18 60 -12q9 -22 -3 -49.5t-32 -36.5zM511 512q-19 0 -36 -12q-11 22 -29 38h130q-18 -16 -29 -38q-16 12 -36 12z" />
  </font>
</defs>
</svg>
